<?xml version="1.0" encoding="utf-8" standalone="no"?>
<!DOCTYPE svg PUBLIC "-//W3C//DTD SVG 1.1//EN"
  "http://www.w3.org/Graphics/SVG/1.1/DTD/svg11.dtd">
<svg xmlns:xlink="http://www.w3.org/1999/xlink" width="460.8pt" height="345.6pt" viewBox="0 0 460.8 345.6" xmlns="http://www.w3.org/2000/svg" version="1.1">
 <metadata>
  <rdf:RDF xmlns:dc="http://purl.org/dc/elements/1.1/" xmlns:cc="http://creativecommons.org/ns#" xmlns:rdf="http://www.w3.org/1999/02/22-rdf-syntax-ns#">
   <cc:Work>
    <dc:type rdf:resource="http://purl.org/dc/dcmitype/StillImage"/>
    <dc:date>2024-06-24T13:07:16.811372</dc:date>
    <dc:format>image/svg+xml</dc:format>
    <dc:creator>
     <cc:Agent>
      <dc:title>Matplotlib v3.7.2, https://matplotlib.org/</dc:title>
     </cc:Agent>
    </dc:creator>
   </cc:Work>
  </rdf:RDF>
 </metadata>
 <defs>
  <style type="text/css">*{stroke-linejoin: round; stroke-linecap: butt}</style>
 </defs>
 <g id="figure_1">
  <g id="patch_1">
   <path d="M 0 345.6 
L 460.8 345.6 
L 460.8 0 
L 0 0 
z
" style="fill: #ffffff"/>
  </g>
  <g id="axes_1">
   <g id="patch_2">
    <path d="M 57.6 307.584 
L 414.72 307.584 
L 414.72 41.472 
L 57.6 41.472 
z
" style="fill: #ffffff"/>
   </g>
   <g id="PathCollection_1">
    <path d="M 191.43872 287.220367 
L 197.43872 281.220367 
M 191.43872 281.220367 
L 197.43872 287.220367 
" clip-path="url(#pf1253c51cf)" style="fill: #0000ff; fill-opacity: 0.5; stroke: #0000ff; stroke-opacity: 0.5; stroke-width: 1.5"/>
    <path d="M 232.172264 161.25324 
L 238.172264 155.25324 
M 232.172264 155.25324 
L 238.172264 161.25324 
" clip-path="url(#pf1253c51cf)" style="fill: #0000ff; fill-opacity: 0.5; stroke: #0000ff; stroke-opacity: 0.5; stroke-width: 1.5"/>
    <path d="M 235.359213 163.363705 
L 241.359213 157.363705 
M 235.359213 157.363705 
L 241.359213 163.363705 
" clip-path="url(#pf1253c51cf)" style="fill: #0000ff; fill-opacity: 0.5; stroke: #0000ff; stroke-opacity: 0.5; stroke-width: 1.5"/>
    <path d="M 83.886319 75.67927 
L 89.886319 69.67927 
M 83.886319 69.67927 
L 89.886319 75.67927 
" clip-path="url(#pf1253c51cf)" style="fill: #fe0100; fill-opacity: 0.5; stroke: #fe0100; stroke-opacity: 0.5; stroke-width: 1.5"/>
    <path d="M 341.914687 100.564158 
L 347.914687 94.564158 
M 341.914687 94.564158 
L 347.914687 100.564158 
" clip-path="url(#pf1253c51cf)" style="fill: #00ff00; fill-opacity: 0.5; stroke: #00ff00; stroke-opacity: 0.5; stroke-width: 1.5"/>
    <path d="M 369.948708 137.807055 
L 375.948708 131.807055 
M 369.948708 131.807055 
L 375.948708 137.807055 
" clip-path="url(#pf1253c51cf)" style="fill: #00ff00; fill-opacity: 0.5; stroke: #00ff00; stroke-opacity: 0.5; stroke-width: 1.5"/>
    <path d="M 379.926214 170.36346 
L 385.926214 164.36346 
M 379.926214 164.36346 
L 385.926214 170.36346 
" clip-path="url(#pf1253c51cf)" style="fill: #00ff00; fill-opacity: 0.5; stroke: #00ff00; stroke-opacity: 0.5; stroke-width: 1.5"/>
    <path d="M 92.226355 115.477495 
L 98.226355 109.477495 
M 92.226355 109.477495 
L 98.226355 115.477495 
" clip-path="url(#pf1253c51cf)" style="fill: #fe0100; fill-opacity: 0.5; stroke: #fe0100; stroke-opacity: 0.5; stroke-width: 1.5"/>
    <path d="M 124.770789 205.194828 
L 130.770789 199.194828 
M 124.770789 199.194828 
L 130.770789 205.194828 
" clip-path="url(#pf1253c51cf)" style="fill: #0000ff; fill-opacity: 0.5; stroke: #0000ff; stroke-opacity: 0.5; stroke-width: 1.5"/>
    <path d="M 351.430596 122.457799 
L 357.430596 116.457799 
M 351.430596 116.457799 
L 357.430596 122.457799 
" clip-path="url(#pf1253c51cf)" style="fill: #00ff00; fill-opacity: 0.5; stroke: #00ff00; stroke-opacity: 0.5; stroke-width: 1.5"/>
    <path d="M 331.163867 86.768374 
L 337.163867 80.768374 
M 331.163867 80.768374 
L 337.163867 86.768374 
" clip-path="url(#pf1253c51cf)" style="fill: #00ff00; fill-opacity: 0.5; stroke: #00ff00; stroke-opacity: 0.5; stroke-width: 1.5"/>
    <path d="M 148.033982 147.704873 
L 154.033982 141.704873 
M 148.033982 141.704873 
L 154.033982 147.704873 
" clip-path="url(#pf1253c51cf)" style="fill: #fe0100; fill-opacity: 0.5; stroke: #fe0100; stroke-opacity: 0.5; stroke-width: 1.5"/>
    <path d="M 187.291779 252.875998 
L 193.291779 246.875998 
M 187.291779 246.875998 
L 193.291779 252.875998 
" clip-path="url(#pf1253c51cf)" style="fill: #0000ff; fill-opacity: 0.5; stroke: #0000ff; stroke-opacity: 0.5; stroke-width: 1.5"/>
    <path d="M 343.354546 145.593676 
L 349.354546 139.593676 
M 343.354546 139.593676 
L 349.354546 145.593676 
" clip-path="url(#pf1253c51cf)" style="fill: #00ff00; fill-opacity: 0.5; stroke: #00ff00; stroke-opacity: 0.5; stroke-width: 1.5"/>
    <path d="M 130.355078 203.899382 
L 136.355078 197.899382 
M 130.355078 197.899382 
L 136.355078 203.899382 
" clip-path="url(#pf1253c51cf)" style="fill: #0000ff; fill-opacity: 0.5; stroke: #0000ff; stroke-opacity: 0.5; stroke-width: 1.5"/>
    <path d="M 84.737039 72.902865 
L 90.737039 66.902865 
M 84.737039 66.902865 
L 90.737039 72.902865 
" clip-path="url(#pf1253c51cf)" style="fill: #fe0100; fill-opacity: 0.5; stroke: #fe0100; stroke-opacity: 0.5; stroke-width: 1.5"/>
    <path d="M 86.56253 89.392548 
L 92.56253 83.392548 
M 86.56253 83.392548 
L 92.56253 89.392548 
" clip-path="url(#pf1253c51cf)" style="fill: #fe0100; fill-opacity: 0.5; stroke: #fe0100; stroke-opacity: 0.5; stroke-width: 1.5"/>
    <path d="M 174.603637 282.685604 
L 180.603637 276.685604 
M 174.603637 276.685604 
L 180.603637 282.685604 
" clip-path="url(#pf1253c51cf)" style="fill: #0000ff; fill-opacity: 0.5; stroke: #0000ff; stroke-opacity: 0.5; stroke-width: 1.5"/>
    <path d="M 395.487273 183.377577 
L 401.487273 177.377577 
M 395.487273 177.377577 
L 401.487273 183.377577 
" clip-path="url(#pf1253c51cf)" style="fill: #00ff00; fill-opacity: 0.5; stroke: #00ff00; stroke-opacity: 0.5; stroke-width: 1.5"/>
    <path d="M 319.14794 83.393907 
L 325.14794 77.393907 
M 319.14794 77.393907 
L 325.14794 83.393907 
" clip-path="url(#pf1253c51cf)" style="fill: #00ff00; fill-opacity: 0.5; stroke: #00ff00; stroke-opacity: 0.5; stroke-width: 1.5"/>
    <path d="M 153.39266 148.922395 
L 159.39266 142.922395 
M 153.39266 142.922395 
L 159.39266 148.922395 
" clip-path="url(#pf1253c51cf)" style="fill: #fe0100; fill-opacity: 0.5; stroke: #fe0100; stroke-opacity: 0.5; stroke-width: 1.5"/>
    <path d="M 173.380683 279.447812 
L 179.380683 273.447812 
M 173.380683 273.447812 
L 179.380683 279.447812 
" clip-path="url(#pf1253c51cf)" style="fill: #0000ff; fill-opacity: 0.5; stroke: #0000ff; stroke-opacity: 0.5; stroke-width: 1.5"/>
    <path d="M 358.275574 147.401761 
L 364.275574 141.401761 
M 358.275574 141.401761 
L 364.275574 147.401761 
" clip-path="url(#pf1253c51cf)" style="fill: #00ff00; fill-opacity: 0.5; stroke: #00ff00; stroke-opacity: 0.5; stroke-width: 1.5"/>
    <path d="M 326.639267 154.930667 
L 332.639267 148.930667 
M 326.639267 148.930667 
L 332.639267 154.930667 
" clip-path="url(#pf1253c51cf)" style="fill: #00ff00; fill-opacity: 0.5; stroke: #00ff00; stroke-opacity: 0.5; stroke-width: 1.5"/>
    <path d="M 187.452021 190.014152 
L 193.452021 184.014152 
M 187.452021 184.014152 
L 193.452021 190.014152 
" clip-path="url(#pf1253c51cf)" style="fill: #0000ff; fill-opacity: 0.5; stroke: #0000ff; stroke-opacity: 0.5; stroke-width: 1.5"/>
    <path d="M 184.527196 258.921087 
L 190.527196 252.921087 
M 184.527196 252.921087 
L 190.527196 258.921087 
" clip-path="url(#pf1253c51cf)" style="fill: #0000ff; fill-opacity: 0.5; stroke: #0000ff; stroke-opacity: 0.5; stroke-width: 1.5"/>
    <path d="M 116.202852 141.822654 
L 122.202852 135.822654 
M 116.202852 135.822654 
L 122.202852 141.822654 
" clip-path="url(#pf1253c51cf)" style="fill: #fe0100; fill-opacity: 0.5; stroke: #fe0100; stroke-opacity: 0.5; stroke-width: 1.5"/>
    <path d="M 130.808195 139.143863 
L 136.808195 133.143863 
M 130.808195 133.143863 
L 136.808195 139.143863 
" clip-path="url(#pf1253c51cf)" style="fill: #fe0100; fill-opacity: 0.5; stroke: #fe0100; stroke-opacity: 0.5; stroke-width: 1.5"/>
    <path d="M 85.564411 200.872262 
L 91.564411 194.872262 
M 85.564411 194.872262 
L 91.564411 200.872262 
" clip-path="url(#pf1253c51cf)" style="fill: #0000ff; fill-opacity: 0.5; stroke: #0000ff; stroke-opacity: 0.5; stroke-width: 1.5"/>
    <path d="M 327.039839 152.801117 
L 333.039839 146.801117 
M 327.039839 146.801117 
L 333.039839 152.801117 
" clip-path="url(#pf1253c51cf)" style="fill: #00ff00; fill-opacity: 0.5; stroke: #00ff00; stroke-opacity: 0.5; stroke-width: 1.5"/>
    <path d="M 369.055442 171.945364 
L 375.055442 165.945364 
M 369.055442 165.945364 
L 375.055442 171.945364 
" clip-path="url(#pf1253c51cf)" style="fill: #00ff00; fill-opacity: 0.5; stroke: #00ff00; stroke-opacity: 0.5; stroke-width: 1.5"/>
    <path d="M 134.537843 202.552157 
L 140.537843 196.552157 
M 134.537843 196.552157 
L 140.537843 202.552157 
" clip-path="url(#pf1253c51cf)" style="fill: #0000ff; fill-opacity: 0.5; stroke: #0000ff; stroke-opacity: 0.5; stroke-width: 1.5"/>
    <path d="M 340.960839 88.192122 
L 346.960839 82.192122 
M 340.960839 82.192122 
L 346.960839 88.192122 
" clip-path="url(#pf1253c51cf)" style="fill: #00ff00; fill-opacity: 0.5; stroke: #00ff00; stroke-opacity: 0.5; stroke-width: 1.5"/>
    <path d="M 99.593844 200.26223 
L 105.593844 194.26223 
M 99.593844 194.26223 
L 105.593844 200.26223 
" clip-path="url(#pf1253c51cf)" style="fill: #0000ff; fill-opacity: 0.5; stroke: #0000ff; stroke-opacity: 0.5; stroke-width: 1.5"/>
    <path d="M 91.029557 113.333236 
L 97.029557 107.333236 
M 91.029557 107.333236 
L 97.029557 113.333236 
" clip-path="url(#pf1253c51cf)" style="fill: #fe0100; fill-opacity: 0.5; stroke: #fe0100; stroke-opacity: 0.5; stroke-width: 1.5"/>
    <path d="M 365.406961 160.432547 
L 371.406961 154.432547 
M 365.406961 154.432547 
L 371.406961 160.432547 
" clip-path="url(#pf1253c51cf)" style="fill: #00ff00; fill-opacity: 0.5; stroke: #00ff00; stroke-opacity: 0.5; stroke-width: 1.5"/>
    <path d="M 228.553764 290.440418 
L 234.553764 284.440418 
M 228.553764 284.440418 
L 234.553764 290.440418 
" clip-path="url(#pf1253c51cf)" style="fill: #00ff00; fill-opacity: 0.5; stroke: #00ff00; stroke-opacity: 0.5; stroke-width: 1.5"/>
    <path d="M 199.104228 290.178772 
L 205.104228 284.178772 
M 199.104228 284.178772 
L 205.104228 290.178772 
" clip-path="url(#pf1253c51cf)" style="fill: #0000ff; fill-opacity: 0.5; stroke: #0000ff; stroke-opacity: 0.5; stroke-width: 1.5"/>
    <path d="M 341.355236 98.245809 
L 347.355236 92.245809 
M 341.355236 92.245809 
L 347.355236 98.245809 
" clip-path="url(#pf1253c51cf)" style="fill: #00ff00; fill-opacity: 0.5; stroke: #00ff00; stroke-opacity: 0.5; stroke-width: 1.5"/>
    <path d="M 348.596954 116.50638 
L 354.596954 110.50638 
M 348.596954 110.50638 
L 354.596954 116.50638 
" clip-path="url(#pf1253c51cf)" style="fill: #00ff00; fill-opacity: 0.5; stroke: #00ff00; stroke-opacity: 0.5; stroke-width: 1.5"/>
    <path d="M 229.751312 164.394652 
L 235.751312 158.394652 
M 229.751312 158.394652 
L 235.751312 164.394652 
" clip-path="url(#pf1253c51cf)" style="fill: #0000ff; fill-opacity: 0.5; stroke: #0000ff; stroke-opacity: 0.5; stroke-width: 1.5"/>
    <path d="M 344.300682 106.881087 
L 350.300682 100.881087 
M 344.300682 100.881087 
L 350.300682 106.881087 
" clip-path="url(#pf1253c51cf)" style="fill: #00ff00; fill-opacity: 0.5; stroke: #00ff00; stroke-opacity: 0.5; stroke-width: 1.5"/>
    <path d="M 160.055071 287.161539 
L 166.055071 281.161539 
M 160.055071 281.161539 
L 166.055071 287.161539 
" clip-path="url(#pf1253c51cf)" style="fill: #fe0100; fill-opacity: 0.5; stroke: #fe0100; stroke-opacity: 0.5; stroke-width: 1.5"/>
    <path d="M 349.629449 119.0101 
L 355.629449 113.0101 
M 349.629449 113.0101 
L 355.629449 119.0101 
" clip-path="url(#pf1253c51cf)" style="fill: #00ff00; fill-opacity: 0.5; stroke: #00ff00; stroke-opacity: 0.5; stroke-width: 1.5"/>
    <path d="M 109.448611 131.327361 
L 115.448611 125.327361 
M 109.448611 125.327361 
L 115.448611 131.327361 
" clip-path="url(#pf1253c51cf)" style="fill: #fe0100; fill-opacity: 0.5; stroke: #fe0100; stroke-opacity: 0.5; stroke-width: 1.5"/>
    <path d="M 162.541463 145.393845 
L 168.541463 139.393845 
M 162.541463 139.393845 
L 168.541463 145.393845 
" clip-path="url(#pf1253c51cf)" style="fill: #fe0100; fill-opacity: 0.5; stroke: #fe0100; stroke-opacity: 0.5; stroke-width: 1.5"/>
    <path d="M 197.493915 296.342691 
L 203.493915 290.342691 
M 197.493915 290.342691 
L 203.493915 296.342691 
" clip-path="url(#pf1253c51cf)" style="fill: #0000ff; fill-opacity: 0.5; stroke: #0000ff; stroke-opacity: 0.5; stroke-width: 1.5"/>
    <path d="M 336.535077 88.047676 
L 342.535077 82.047676 
M 336.535077 82.047676 
L 342.535077 88.047676 
" clip-path="url(#pf1253c51cf)" style="fill: #00ff00; fill-opacity: 0.5; stroke: #00ff00; stroke-opacity: 0.5; stroke-width: 1.5"/>
    <path d="M 230.796441 288.92587 
L 236.796441 282.92587 
M 230.796441 282.92587 
L 236.796441 288.92587 
" clip-path="url(#pf1253c51cf)" style="fill: #00ff00; fill-opacity: 0.5; stroke: #00ff00; stroke-opacity: 0.5; stroke-width: 1.5"/>
    <path d="M 183.757804 190.880376 
L 189.757804 184.880376 
M 183.757804 184.880376 
L 189.757804 190.880376 
" clip-path="url(#pf1253c51cf)" style="fill: #0000ff; fill-opacity: 0.5; stroke: #0000ff; stroke-opacity: 0.5; stroke-width: 1.5"/>
    <path d="M 91.720495 78.759371 
L 97.720495 72.759371 
M 91.720495 72.759371 
L 97.720495 78.759371 
" clip-path="url(#pf1253c51cf)" style="fill: #fe0100; fill-opacity: 0.5; stroke: #fe0100; stroke-opacity: 0.5; stroke-width: 1.5"/>
    <path d="M 152.670109 145.522938 
L 158.670109 139.522938 
M 152.670109 139.522938 
L 158.670109 145.522938 
" clip-path="url(#pf1253c51cf)" style="fill: #fe0100; fill-opacity: 0.5; stroke: #fe0100; stroke-opacity: 0.5; stroke-width: 1.5"/>
    <path d="M 79.457421 61.650403 
L 85.457421 55.650403 
M 79.457421 55.650403 
L 85.457421 61.650403 
" clip-path="url(#pf1253c51cf)" style="fill: #fe0100; fill-opacity: 0.5; stroke: #fe0100; stroke-opacity: 0.5; stroke-width: 1.5"/>
    <path d="M 77.993422 59.369435 
L 83.993422 53.369435 
M 77.993422 53.369435 
L 83.993422 59.369435 
" clip-path="url(#pf1253c51cf)" style="fill: #fe0100; fill-opacity: 0.5; stroke: #fe0100; stroke-opacity: 0.5; stroke-width: 1.5"/>
    <path d="M 203.463868 186.083914 
L 209.463868 180.083914 
M 203.463868 180.083914 
L 209.463868 186.083914 
" clip-path="url(#pf1253c51cf)" style="fill: #0000ff; fill-opacity: 0.5; stroke: #0000ff; stroke-opacity: 0.5; stroke-width: 1.5"/>
    <path d="M 88.961415 81.259258 
L 94.961415 75.259258 
M 88.961415 75.259258 
L 94.961415 81.259258 
" clip-path="url(#pf1253c51cf)" style="fill: #fe0100; fill-opacity: 0.5; stroke: #fe0100; stroke-opacity: 0.5; stroke-width: 1.5"/>
    <path d="M 191.40467 252.636661 
L 197.40467 246.636661 
M 191.40467 246.636661 
L 197.40467 252.636661 
" clip-path="url(#pf1253c51cf)" style="fill: #0000ff; fill-opacity: 0.5; stroke: #0000ff; stroke-opacity: 0.5; stroke-width: 1.5"/>
    <path d="M 94.300553 199.721244 
L 100.300553 193.721244 
M 94.300553 193.721244 
L 100.300553 199.721244 
" clip-path="url(#pf1253c51cf)" style="fill: #0000ff; fill-opacity: 0.5; stroke: #0000ff; stroke-opacity: 0.5; stroke-width: 1.5"/>
    <path d="M 70.832727 59.031983 
L 76.832727 53.031983 
M 70.832727 53.031983 
L 76.832727 59.031983 
" clip-path="url(#pf1253c51cf)" style="fill: #fe0100; fill-opacity: 0.5; stroke: #fe0100; stroke-opacity: 0.5; stroke-width: 1.5"/>
    <path d="M 371.104947 166.329234 
L 377.104947 160.329234 
M 371.104947 160.329234 
L 377.104947 166.329234 
" clip-path="url(#pf1253c51cf)" style="fill: #00ff00; fill-opacity: 0.5; stroke: #00ff00; stroke-opacity: 0.5; stroke-width: 1.5"/>
    <path d="M 352.200657 142.747141 
L 358.200657 136.747141 
M 352.200657 136.747141 
L 358.200657 142.747141 
" clip-path="url(#pf1253c51cf)" style="fill: #00ff00; fill-opacity: 0.5; stroke: #00ff00; stroke-opacity: 0.5; stroke-width: 1.5"/>
    <path d="M 85.255899 56.568 
L 91.255899 50.568 
M 85.255899 50.568 
L 91.255899 56.568 
" clip-path="url(#pf1253c51cf)" style="fill: #fe0100; fill-opacity: 0.5; stroke: #fe0100; stroke-opacity: 0.5; stroke-width: 1.5"/>
    <path d="M 183.234791 261.198914 
L 189.234791 255.198914 
M 183.234791 255.198914 
L 189.234791 261.198914 
" clip-path="url(#pf1253c51cf)" style="fill: #0000ff; fill-opacity: 0.5; stroke: #0000ff; stroke-opacity: 0.5; stroke-width: 1.5"/>
    <path d="M 166.711588 285.527715 
L 172.711588 279.527715 
M 166.711588 279.527715 
L 172.711588 285.527715 
" clip-path="url(#pf1253c51cf)" style="fill: #fe0100; fill-opacity: 0.5; stroke: #fe0100; stroke-opacity: 0.5; stroke-width: 1.5"/>
    <path d="M 354.308748 127.688271 
L 360.308748 121.688271 
M 354.308748 121.688271 
L 360.308748 127.688271 
" clip-path="url(#pf1253c51cf)" style="fill: #00ff00; fill-opacity: 0.5; stroke: #00ff00; stroke-opacity: 0.5; stroke-width: 1.5"/>
    <path d="M 94.702621 119.604283 
L 100.702621 113.604283 
M 94.702621 113.604283 
L 100.702621 119.604283 
" clip-path="url(#pf1253c51cf)" style="fill: #fe0100; fill-opacity: 0.5; stroke: #fe0100; stroke-opacity: 0.5; stroke-width: 1.5"/>
    <path d="M 99.500098 77.000794 
L 105.500098 71.000794 
M 99.500098 71.000794 
L 105.500098 77.000794 
" clip-path="url(#pf1253c51cf)" style="fill: #fe0100; fill-opacity: 0.5; stroke: #fe0100; stroke-opacity: 0.5; stroke-width: 1.5"/>
    <path d="M 196.289085 298.488 
L 202.289085 292.488 
M 196.289085 292.488 
L 202.289085 298.488 
" clip-path="url(#pf1253c51cf)" style="fill: #0000ff; fill-opacity: 0.5; stroke: #0000ff; stroke-opacity: 0.5; stroke-width: 1.5"/>
    <path d="M 321.685642 81.647188 
L 327.685642 75.647188 
M 321.685642 75.647188 
L 327.685642 81.647188 
" clip-path="url(#pf1253c51cf)" style="fill: #00ff00; fill-opacity: 0.5; stroke: #00ff00; stroke-opacity: 0.5; stroke-width: 1.5"/>
    <path d="M 190.391883 282.127891 
L 196.391883 276.127891 
M 190.391883 276.127891 
L 196.391883 282.127891 
" clip-path="url(#pf1253c51cf)" style="fill: #0000ff; fill-opacity: 0.5; stroke: #0000ff; stroke-opacity: 0.5; stroke-width: 1.5"/>
    <path d="M 366.707987 139.504079 
L 372.707987 133.504079 
M 366.707987 133.504079 
L 372.707987 139.504079 
" clip-path="url(#pf1253c51cf)" style="fill: #00ff00; fill-opacity: 0.5; stroke: #00ff00; stroke-opacity: 0.5; stroke-width: 1.5"/>
    <path d="M 147.347118 138.484929 
L 153.347118 132.484929 
M 147.347118 132.484929 
L 153.347118 138.484929 
" clip-path="url(#pf1253c51cf)" style="fill: #fe0100; fill-opacity: 0.5; stroke: #fe0100; stroke-opacity: 0.5; stroke-width: 1.5"/>
    <path d="M 186.621617 284.154622 
L 192.621617 278.154622 
M 186.621617 278.154622 
L 192.621617 284.154622 
" clip-path="url(#pf1253c51cf)" style="fill: #0000ff; fill-opacity: 0.5; stroke: #0000ff; stroke-opacity: 0.5; stroke-width: 1.5"/>
    <path d="M 139.783726 200.908096 
L 145.783726 194.908096 
M 139.783726 194.908096 
L 145.783726 200.908096 
" clip-path="url(#pf1253c51cf)" style="fill: #0000ff; fill-opacity: 0.5; stroke: #0000ff; stroke-opacity: 0.5; stroke-width: 1.5"/>
    <path d="M 136.751433 139.50399 
L 142.751433 133.50399 
M 136.751433 133.50399 
L 142.751433 139.50399 
" clip-path="url(#pf1253c51cf)" style="fill: #fe0100; fill-opacity: 0.5; stroke: #fe0100; stroke-opacity: 0.5; stroke-width: 1.5"/>
    <path d="M 392.723776 181.939183 
L 398.723776 175.939183 
M 392.723776 175.939183 
L 398.723776 181.939183 
" clip-path="url(#pf1253c51cf)" style="fill: #00ff00; fill-opacity: 0.5; stroke: #00ff00; stroke-opacity: 0.5; stroke-width: 1.5"/>
    <path d="M 87.697813 91.750747 
L 93.697813 85.750747 
M 87.697813 85.750747 
L 93.697813 91.750747 
" clip-path="url(#pf1253c51cf)" style="fill: #fe0100; fill-opacity: 0.5; stroke: #fe0100; stroke-opacity: 0.5; stroke-width: 1.5"/>
    <path d="M 190.065521 247.838426 
L 196.065521 241.838426 
M 190.065521 241.838426 
L 196.065521 247.838426 
" clip-path="url(#pf1253c51cf)" style="fill: #0000ff; fill-opacity: 0.5; stroke: #0000ff; stroke-opacity: 0.5; stroke-width: 1.5"/>
    <path d="M 114.207033 134.642521 
L 120.207033 128.642521 
M 114.207033 128.642521 
L 120.207033 134.642521 
" clip-path="url(#pf1253c51cf)" style="fill: #fe0100; fill-opacity: 0.5; stroke: #fe0100; stroke-opacity: 0.5; stroke-width: 1.5"/>
    <path d="M 89.065564 198.250702 
L 95.065564 192.250702 
M 89.065564 192.250702 
L 95.065564 198.250702 
" clip-path="url(#pf1253c51cf)" style="fill: #0000ff; fill-opacity: 0.5; stroke: #0000ff; stroke-opacity: 0.5; stroke-width: 1.5"/>
    <path d="M 207.298546 185.361809 
L 213.298546 179.361809 
M 207.298546 179.361809 
L 213.298546 185.361809 
" clip-path="url(#pf1253c51cf)" style="fill: #0000ff; fill-opacity: 0.5; stroke: #0000ff; stroke-opacity: 0.5; stroke-width: 1.5"/>
    <path d="M 354.329585 145.799269 
L 360.329585 139.799269 
M 354.329585 139.799269 
L 360.329585 145.799269 
" clip-path="url(#pf1253c51cf)" style="fill: #00ff00; fill-opacity: 0.5; stroke: #00ff00; stroke-opacity: 0.5; stroke-width: 1.5"/>
    <path d="M 117.715731 137.142651 
L 123.715731 131.142651 
M 117.715731 131.142651 
L 123.715731 137.142651 
" clip-path="url(#pf1253c51cf)" style="fill: #fe0100; fill-opacity: 0.5; stroke: #fe0100; stroke-opacity: 0.5; stroke-width: 1.5"/>
    <path d="M 360.807117 157.021252 
L 366.807117 151.021252 
M 360.807117 151.021252 
L 366.807117 157.021252 
" clip-path="url(#pf1253c51cf)" style="fill: #00ff00; fill-opacity: 0.5; stroke: #00ff00; stroke-opacity: 0.5; stroke-width: 1.5"/>
    <path d="M 377.748579 168.311465 
L 383.748579 162.311465 
M 377.748579 162.311465 
L 383.748579 168.311465 
" clip-path="url(#pf1253c51cf)" style="fill: #00ff00; fill-opacity: 0.5; stroke: #00ff00; stroke-opacity: 0.5; stroke-width: 1.5"/>
    <path d="M 196.337072 187.960295 
L 202.337072 181.960295 
M 196.337072 181.960295 
L 202.337072 187.960295 
" clip-path="url(#pf1253c51cf)" style="fill: #0000ff; fill-opacity: 0.5; stroke: #0000ff; stroke-opacity: 0.5; stroke-width: 1.5"/>
   </g>
   <g id="matplotlib.axis_1">
    <g id="xtick_1">
     <g id="line2d_1">
      <defs>
       <path id="m4169d4156f" d="M 0 0 
L 0 3.5 
" style="stroke: #000000; stroke-width: 0.8"/>
      </defs>
      <g>
       <use xlink:href="#m4169d4156f" x="80.282312" y="307.584" style="stroke: #000000; stroke-width: 0.8"/>
      </g>
     </g>
     <g id="text_1">
      <!-- −30 -->
      <g transform="translate(69.729968 322.182437) scale(0.1 -0.1)">
       <defs>
        <path id="DejaVuSans-2212" d="M 678 2272 
L 4684 2272 
L 4684 1741 
L 678 1741 
L 678 2272 
z
" transform="scale(0.015625)"/>
        <path id="DejaVuSans-33" d="M 2597 2516 
Q 3050 2419 3304 2112 
Q 3559 1806 3559 1356 
Q 3559 666 3084 287 
Q 2609 -91 1734 -91 
Q 1441 -91 1130 -33 
Q 819 25 488 141 
L 488 750 
Q 750 597 1062 519 
Q 1375 441 1716 441 
Q 2309 441 2620 675 
Q 2931 909 2931 1356 
Q 2931 1769 2642 2001 
Q 2353 2234 1838 2234 
L 1294 2234 
L 1294 2753 
L 1863 2753 
Q 2328 2753 2575 2939 
Q 2822 3125 2822 3475 
Q 2822 3834 2567 4026 
Q 2313 4219 1838 4219 
Q 1578 4219 1281 4162 
Q 984 4106 628 3988 
L 628 4550 
Q 988 4650 1302 4700 
Q 1616 4750 1894 4750 
Q 2613 4750 3031 4423 
Q 3450 4097 3450 3541 
Q 3450 3153 3228 2886 
Q 3006 2619 2597 2516 
z
" transform="scale(0.015625)"/>
        <path id="DejaVuSans-30" d="M 2034 4250 
Q 1547 4250 1301 3770 
Q 1056 3291 1056 2328 
Q 1056 1369 1301 889 
Q 1547 409 2034 409 
Q 2525 409 2770 889 
Q 3016 1369 3016 2328 
Q 3016 3291 2770 3770 
Q 2525 4250 2034 4250 
z
M 2034 4750 
Q 2819 4750 3233 4129 
Q 3647 3509 3647 2328 
Q 3647 1150 3233 529 
Q 2819 -91 2034 -91 
Q 1250 -91 836 529 
Q 422 1150 422 2328 
Q 422 3509 836 4129 
Q 1250 4750 2034 4750 
z
" transform="scale(0.015625)"/>
       </defs>
       <use xlink:href="#DejaVuSans-2212"/>
       <use xlink:href="#DejaVuSans-33" x="83.789062"/>
       <use xlink:href="#DejaVuSans-30" x="147.412109"/>
      </g>
     </g>
    </g>
    <g id="xtick_2">
     <g id="line2d_2">
      <g>
       <use xlink:href="#m4169d4156f" x="121.790503" y="307.584" style="stroke: #000000; stroke-width: 0.8"/>
      </g>
     </g>
     <g id="text_2">
      <!-- −20 -->
      <g transform="translate(111.23816 322.182437) scale(0.1 -0.1)">
       <defs>
        <path id="DejaVuSans-32" d="M 1228 531 
L 3431 531 
L 3431 0 
L 469 0 
L 469 531 
Q 828 903 1448 1529 
Q 2069 2156 2228 2338 
Q 2531 2678 2651 2914 
Q 2772 3150 2772 3378 
Q 2772 3750 2511 3984 
Q 2250 4219 1831 4219 
Q 1534 4219 1204 4116 
Q 875 4013 500 3803 
L 500 4441 
Q 881 4594 1212 4672 
Q 1544 4750 1819 4750 
Q 2544 4750 2975 4387 
Q 3406 4025 3406 3419 
Q 3406 3131 3298 2873 
Q 3191 2616 2906 2266 
Q 2828 2175 2409 1742 
Q 1991 1309 1228 531 
z
" transform="scale(0.015625)"/>
       </defs>
       <use xlink:href="#DejaVuSans-2212"/>
       <use xlink:href="#DejaVuSans-32" x="83.789062"/>
       <use xlink:href="#DejaVuSans-30" x="147.412109"/>
      </g>
     </g>
    </g>
    <g id="xtick_3">
     <g id="line2d_3">
      <g>
       <use xlink:href="#m4169d4156f" x="163.298695" y="307.584" style="stroke: #000000; stroke-width: 0.8"/>
      </g>
     </g>
     <g id="text_3">
      <!-- −10 -->
      <g transform="translate(152.746351 322.182437) scale(0.1 -0.1)">
       <defs>
        <path id="DejaVuSans-31" d="M 794 531 
L 1825 531 
L 1825 4091 
L 703 3866 
L 703 4441 
L 1819 4666 
L 2450 4666 
L 2450 531 
L 3481 531 
L 3481 0 
L 794 0 
L 794 531 
z
" transform="scale(0.015625)"/>
       </defs>
       <use xlink:href="#DejaVuSans-2212"/>
       <use xlink:href="#DejaVuSans-31" x="83.789062"/>
       <use xlink:href="#DejaVuSans-30" x="147.412109"/>
      </g>
     </g>
    </g>
    <g id="xtick_4">
     <g id="line2d_4">
      <g>
       <use xlink:href="#m4169d4156f" x="204.806886" y="307.584" style="stroke: #000000; stroke-width: 0.8"/>
      </g>
     </g>
     <g id="text_4">
      <!-- 0 -->
      <g transform="translate(201.625636 322.182437) scale(0.1 -0.1)">
       <use xlink:href="#DejaVuSans-30"/>
      </g>
     </g>
    </g>
    <g id="xtick_5">
     <g id="line2d_5">
      <g>
       <use xlink:href="#m4169d4156f" x="246.315077" y="307.584" style="stroke: #000000; stroke-width: 0.8"/>
      </g>
     </g>
     <g id="text_5">
      <!-- 10 -->
      <g transform="translate(239.952577 322.182437) scale(0.1 -0.1)">
       <use xlink:href="#DejaVuSans-31"/>
       <use xlink:href="#DejaVuSans-30" x="63.623047"/>
      </g>
     </g>
    </g>
    <g id="xtick_6">
     <g id="line2d_6">
      <g>
       <use xlink:href="#m4169d4156f" x="287.823269" y="307.584" style="stroke: #000000; stroke-width: 0.8"/>
      </g>
     </g>
     <g id="text_6">
      <!-- 20 -->
      <g transform="translate(281.460769 322.182437) scale(0.1 -0.1)">
       <use xlink:href="#DejaVuSans-32"/>
       <use xlink:href="#DejaVuSans-30" x="63.623047"/>
      </g>
     </g>
    </g>
    <g id="xtick_7">
     <g id="line2d_7">
      <g>
       <use xlink:href="#m4169d4156f" x="329.33146" y="307.584" style="stroke: #000000; stroke-width: 0.8"/>
      </g>
     </g>
     <g id="text_7">
      <!-- 30 -->
      <g transform="translate(322.96896 322.182437) scale(0.1 -0.1)">
       <use xlink:href="#DejaVuSans-33"/>
       <use xlink:href="#DejaVuSans-30" x="63.623047"/>
      </g>
     </g>
    </g>
    <g id="xtick_8">
     <g id="line2d_8">
      <g>
       <use xlink:href="#m4169d4156f" x="370.839651" y="307.584" style="stroke: #000000; stroke-width: 0.8"/>
      </g>
     </g>
     <g id="text_8">
      <!-- 40 -->
      <g transform="translate(364.477151 322.182437) scale(0.1 -0.1)">
       <defs>
        <path id="DejaVuSans-34" d="M 2419 4116 
L 825 1625 
L 2419 1625 
L 2419 4116 
z
M 2253 4666 
L 3047 4666 
L 3047 1625 
L 3713 1625 
L 3713 1100 
L 3047 1100 
L 3047 0 
L 2419 0 
L 2419 1100 
L 313 1100 
L 313 1709 
L 2253 4666 
z
" transform="scale(0.015625)"/>
       </defs>
       <use xlink:href="#DejaVuSans-34"/>
       <use xlink:href="#DejaVuSans-30" x="63.623047"/>
      </g>
     </g>
    </g>
    <g id="xtick_9">
     <g id="line2d_9">
      <g>
       <use xlink:href="#m4169d4156f" x="412.347842" y="307.584" style="stroke: #000000; stroke-width: 0.8"/>
      </g>
     </g>
     <g id="text_9">
      <!-- 50 -->
      <g transform="translate(405.985342 322.182437) scale(0.1 -0.1)">
       <defs>
        <path id="DejaVuSans-35" d="M 691 4666 
L 3169 4666 
L 3169 4134 
L 1269 4134 
L 1269 2991 
Q 1406 3038 1543 3061 
Q 1681 3084 1819 3084 
Q 2600 3084 3056 2656 
Q 3513 2228 3513 1497 
Q 3513 744 3044 326 
Q 2575 -91 1722 -91 
Q 1428 -91 1123 -41 
Q 819 9 494 109 
L 494 744 
Q 775 591 1075 516 
Q 1375 441 1709 441 
Q 2250 441 2565 725 
Q 2881 1009 2881 1497 
Q 2881 1984 2565 2268 
Q 2250 2553 1709 2553 
Q 1456 2553 1204 2497 
Q 953 2441 691 2322 
L 691 4666 
z
" transform="scale(0.015625)"/>
       </defs>
       <use xlink:href="#DejaVuSans-35"/>
       <use xlink:href="#DejaVuSans-30" x="63.623047"/>
      </g>
     </g>
    </g>
   </g>
   <g id="matplotlib.axis_2">
    <g id="ytick_1">
     <g id="line2d_10">
      <defs>
       <path id="m7fadf74952" d="M 0 0 
L -3.5 0 
" style="stroke: #000000; stroke-width: 0.8"/>
      </defs>
      <g>
       <use xlink:href="#m7fadf74952" x="57.6" y="297.888152" style="stroke: #000000; stroke-width: 0.8"/>
      </g>
     </g>
     <g id="text_10">
      <!-- −60 -->
      <g transform="translate(29.495313 301.68737) scale(0.1 -0.1)">
       <defs>
        <path id="DejaVuSans-36" d="M 2113 2584 
Q 1688 2584 1439 2293 
Q 1191 2003 1191 1497 
Q 1191 994 1439 701 
Q 1688 409 2113 409 
Q 2538 409 2786 701 
Q 3034 994 3034 1497 
Q 3034 2003 2786 2293 
Q 2538 2584 2113 2584 
z
M 3366 4563 
L 3366 3988 
Q 3128 4100 2886 4159 
Q 2644 4219 2406 4219 
Q 1781 4219 1451 3797 
Q 1122 3375 1075 2522 
Q 1259 2794 1537 2939 
Q 1816 3084 2150 3084 
Q 2853 3084 3261 2657 
Q 3669 2231 3669 1497 
Q 3669 778 3244 343 
Q 2819 -91 2113 -91 
Q 1303 -91 875 529 
Q 447 1150 447 2328 
Q 447 3434 972 4092 
Q 1497 4750 2381 4750 
Q 2619 4750 2861 4703 
Q 3103 4656 3366 4563 
z
" transform="scale(0.015625)"/>
       </defs>
       <use xlink:href="#DejaVuSans-2212"/>
       <use xlink:href="#DejaVuSans-36" x="83.789062"/>
       <use xlink:href="#DejaVuSans-30" x="147.412109"/>
      </g>
     </g>
    </g>
    <g id="ytick_2">
     <g id="line2d_11">
      <g>
       <use xlink:href="#m7fadf74952" x="57.6" y="249.03229" style="stroke: #000000; stroke-width: 0.8"/>
      </g>
     </g>
     <g id="text_11">
      <!-- −40 -->
      <g transform="translate(29.495313 252.831509) scale(0.1 -0.1)">
       <use xlink:href="#DejaVuSans-2212"/>
       <use xlink:href="#DejaVuSans-34" x="83.789062"/>
       <use xlink:href="#DejaVuSans-30" x="147.412109"/>
      </g>
     </g>
    </g>
    <g id="ytick_3">
     <g id="line2d_12">
      <g>
       <use xlink:href="#m7fadf74952" x="57.6" y="200.176428" style="stroke: #000000; stroke-width: 0.8"/>
      </g>
     </g>
     <g id="text_12">
      <!-- −20 -->
      <g transform="translate(29.495313 203.975647) scale(0.1 -0.1)">
       <use xlink:href="#DejaVuSans-2212"/>
       <use xlink:href="#DejaVuSans-32" x="83.789062"/>
       <use xlink:href="#DejaVuSans-30" x="147.412109"/>
      </g>
     </g>
    </g>
    <g id="ytick_4">
     <g id="line2d_13">
      <g>
       <use xlink:href="#m7fadf74952" x="57.6" y="151.320566" style="stroke: #000000; stroke-width: 0.8"/>
      </g>
     </g>
     <g id="text_13">
      <!-- 0 -->
      <g transform="translate(44.2375 155.119785) scale(0.1 -0.1)">
       <use xlink:href="#DejaVuSans-30"/>
      </g>
     </g>
    </g>
    <g id="ytick_5">
     <g id="line2d_14">
      <g>
       <use xlink:href="#m7fadf74952" x="57.6" y="102.464705" style="stroke: #000000; stroke-width: 0.8"/>
      </g>
     </g>
     <g id="text_14">
      <!-- 20 -->
      <g transform="translate(37.875 106.263924) scale(0.1 -0.1)">
       <use xlink:href="#DejaVuSans-32"/>
       <use xlink:href="#DejaVuSans-30" x="63.623047"/>
      </g>
     </g>
    </g>
    <g id="ytick_6">
     <g id="line2d_15">
      <g>
       <use xlink:href="#m7fadf74952" x="57.6" y="53.608843" style="stroke: #000000; stroke-width: 0.8"/>
      </g>
     </g>
     <g id="text_15">
      <!-- 40 -->
      <g transform="translate(37.875 57.408062) scale(0.1 -0.1)">
       <use xlink:href="#DejaVuSans-34"/>
       <use xlink:href="#DejaVuSans-30" x="63.623047"/>
      </g>
     </g>
    </g>
   </g>
   <g id="patch_3">
    <path d="M 57.6 307.584 
L 57.6 41.472 
" style="fill: none; stroke: #000000; stroke-width: 0.8; stroke-linejoin: miter; stroke-linecap: square"/>
   </g>
   <g id="patch_4">
    <path d="M 414.72 307.584 
L 414.72 41.472 
" style="fill: none; stroke: #000000; stroke-width: 0.8; stroke-linejoin: miter; stroke-linecap: square"/>
   </g>
   <g id="patch_5">
    <path d="M 57.6 307.584 
L 414.72 307.584 
" style="fill: none; stroke: #000000; stroke-width: 0.8; stroke-linejoin: miter; stroke-linecap: square"/>
   </g>
   <g id="patch_6">
    <path d="M 57.6 41.472 
L 414.72 41.472 
" style="fill: none; stroke: #000000; stroke-width: 0.8; stroke-linejoin: miter; stroke-linecap: square"/>
   </g>
   <g id="legend_1">
    <g id="patch_7">
     <path d="M 324.829375 108.1845 
L 407.72 108.1845 
Q 409.72 108.1845 409.72 106.1845 
L 409.72 48.472 
Q 409.72 46.472 407.72 46.472 
L 324.829375 46.472 
Q 322.829375 46.472 322.829375 48.472 
L 322.829375 106.1845 
Q 322.829375 108.1845 324.829375 108.1845 
z
" style="fill: #001a1a; fill-opacity: 0.1; stroke: #cccccc; stroke-linejoin: miter"/>
    </g>
    <g id="text_16">
     <!-- Classes -->
     <g transform="translate(347.439531 58.070438) scale(0.1 -0.1)">
      <defs>
       <path id="DejaVuSans-43" d="M 4122 4306 
L 4122 3641 
Q 3803 3938 3442 4084 
Q 3081 4231 2675 4231 
Q 1875 4231 1450 3742 
Q 1025 3253 1025 2328 
Q 1025 1406 1450 917 
Q 1875 428 2675 428 
Q 3081 428 3442 575 
Q 3803 722 4122 1019 
L 4122 359 
Q 3791 134 3420 21 
Q 3050 -91 2638 -91 
Q 1578 -91 968 557 
Q 359 1206 359 2328 
Q 359 3453 968 4101 
Q 1578 4750 2638 4750 
Q 3056 4750 3426 4639 
Q 3797 4528 4122 4306 
z
" transform="scale(0.015625)"/>
       <path id="DejaVuSans-6c" d="M 603 4863 
L 1178 4863 
L 1178 0 
L 603 0 
L 603 4863 
z
" transform="scale(0.015625)"/>
       <path id="DejaVuSans-61" d="M 2194 1759 
Q 1497 1759 1228 1600 
Q 959 1441 959 1056 
Q 959 750 1161 570 
Q 1363 391 1709 391 
Q 2188 391 2477 730 
Q 2766 1069 2766 1631 
L 2766 1759 
L 2194 1759 
z
M 3341 1997 
L 3341 0 
L 2766 0 
L 2766 531 
Q 2569 213 2275 61 
Q 1981 -91 1556 -91 
Q 1019 -91 701 211 
Q 384 513 384 1019 
Q 384 1609 779 1909 
Q 1175 2209 1959 2209 
L 2766 2209 
L 2766 2266 
Q 2766 2663 2505 2880 
Q 2244 3097 1772 3097 
Q 1472 3097 1187 3025 
Q 903 2953 641 2809 
L 641 3341 
Q 956 3463 1253 3523 
Q 1550 3584 1831 3584 
Q 2591 3584 2966 3190 
Q 3341 2797 3341 1997 
z
" transform="scale(0.015625)"/>
       <path id="DejaVuSans-73" d="M 2834 3397 
L 2834 2853 
Q 2591 2978 2328 3040 
Q 2066 3103 1784 3103 
Q 1356 3103 1142 2972 
Q 928 2841 928 2578 
Q 928 2378 1081 2264 
Q 1234 2150 1697 2047 
L 1894 2003 
Q 2506 1872 2764 1633 
Q 3022 1394 3022 966 
Q 3022 478 2636 193 
Q 2250 -91 1575 -91 
Q 1294 -91 989 -36 
Q 684 19 347 128 
L 347 722 
Q 666 556 975 473 
Q 1284 391 1588 391 
Q 1994 391 2212 530 
Q 2431 669 2431 922 
Q 2431 1156 2273 1281 
Q 2116 1406 1581 1522 
L 1381 1569 
Q 847 1681 609 1914 
Q 372 2147 372 2553 
Q 372 3047 722 3315 
Q 1072 3584 1716 3584 
Q 2034 3584 2315 3537 
Q 2597 3491 2834 3397 
z
" transform="scale(0.015625)"/>
       <path id="DejaVuSans-65" d="M 3597 1894 
L 3597 1613 
L 953 1613 
Q 991 1019 1311 708 
Q 1631 397 2203 397 
Q 2534 397 2845 478 
Q 3156 559 3463 722 
L 3463 178 
Q 3153 47 2828 -22 
Q 2503 -91 2169 -91 
Q 1331 -91 842 396 
Q 353 884 353 1716 
Q 353 2575 817 3079 
Q 1281 3584 2069 3584 
Q 2775 3584 3186 3129 
Q 3597 2675 3597 1894 
z
M 3022 2063 
Q 3016 2534 2758 2815 
Q 2500 3097 2075 3097 
Q 1594 3097 1305 2825 
Q 1016 2553 972 2059 
L 3022 2063 
z
" transform="scale(0.015625)"/>
      </defs>
      <use xlink:href="#DejaVuSans-43"/>
      <use xlink:href="#DejaVuSans-6c" x="69.824219"/>
      <use xlink:href="#DejaVuSans-61" x="97.607422"/>
      <use xlink:href="#DejaVuSans-73" x="158.886719"/>
      <use xlink:href="#DejaVuSans-73" x="210.986328"/>
      <use xlink:href="#DejaVuSans-65" x="263.085938"/>
      <use xlink:href="#DejaVuSans-73" x="324.609375"/>
     </g>
    </g>
    <g id="line2d_16">
     <defs>
      <path id="mf4f86428c7" d="M -3 3 
L 3 -3 
M -3 -3 
L 3 3 
" style="stroke: #0000ff; stroke-opacity: 0.5; stroke-width: 1.5"/>
     </defs>
     <g>
      <use xlink:href="#mf4f86428c7" x="336.829375" y="69.248563" style="fill: #0000ff; fill-opacity: 0.5; stroke: #0000ff; stroke-opacity: 0.5; stroke-width: 1.5"/>
     </g>
    </g>
    <g id="text_17">
     <!-- Aluminum -->
     <g transform="translate(354.829375 72.748563) scale(0.1 -0.1)">
      <defs>
       <path id="DejaVuSans-41" d="M 2188 4044 
L 1331 1722 
L 3047 1722 
L 2188 4044 
z
M 1831 4666 
L 2547 4666 
L 4325 0 
L 3669 0 
L 3244 1197 
L 1141 1197 
L 716 0 
L 50 0 
L 1831 4666 
z
" transform="scale(0.015625)"/>
       <path id="DejaVuSans-75" d="M 544 1381 
L 544 3500 
L 1119 3500 
L 1119 1403 
Q 1119 906 1312 657 
Q 1506 409 1894 409 
Q 2359 409 2629 706 
Q 2900 1003 2900 1516 
L 2900 3500 
L 3475 3500 
L 3475 0 
L 2900 0 
L 2900 538 
Q 2691 219 2414 64 
Q 2138 -91 1772 -91 
Q 1169 -91 856 284 
Q 544 659 544 1381 
z
M 1991 3584 
L 1991 3584 
z
" transform="scale(0.015625)"/>
       <path id="DejaVuSans-6d" d="M 3328 2828 
Q 3544 3216 3844 3400 
Q 4144 3584 4550 3584 
Q 5097 3584 5394 3201 
Q 5691 2819 5691 2113 
L 5691 0 
L 5113 0 
L 5113 2094 
Q 5113 2597 4934 2840 
Q 4756 3084 4391 3084 
Q 3944 3084 3684 2787 
Q 3425 2491 3425 1978 
L 3425 0 
L 2847 0 
L 2847 2094 
Q 2847 2600 2669 2842 
Q 2491 3084 2119 3084 
Q 1678 3084 1418 2786 
Q 1159 2488 1159 1978 
L 1159 0 
L 581 0 
L 581 3500 
L 1159 3500 
L 1159 2956 
Q 1356 3278 1631 3431 
Q 1906 3584 2284 3584 
Q 2666 3584 2933 3390 
Q 3200 3197 3328 2828 
z
" transform="scale(0.015625)"/>
       <path id="DejaVuSans-69" d="M 603 3500 
L 1178 3500 
L 1178 0 
L 603 0 
L 603 3500 
z
M 603 4863 
L 1178 4863 
L 1178 4134 
L 603 4134 
L 603 4863 
z
" transform="scale(0.015625)"/>
       <path id="DejaVuSans-6e" d="M 3513 2113 
L 3513 0 
L 2938 0 
L 2938 2094 
Q 2938 2591 2744 2837 
Q 2550 3084 2163 3084 
Q 1697 3084 1428 2787 
Q 1159 2491 1159 1978 
L 1159 0 
L 581 0 
L 581 3500 
L 1159 3500 
L 1159 2956 
Q 1366 3272 1645 3428 
Q 1925 3584 2291 3584 
Q 2894 3584 3203 3211 
Q 3513 2838 3513 2113 
z
" transform="scale(0.015625)"/>
      </defs>
      <use xlink:href="#DejaVuSans-41"/>
      <use xlink:href="#DejaVuSans-6c" x="68.408203"/>
      <use xlink:href="#DejaVuSans-75" x="96.191406"/>
      <use xlink:href="#DejaVuSans-6d" x="159.570312"/>
      <use xlink:href="#DejaVuSans-69" x="256.982422"/>
      <use xlink:href="#DejaVuSans-6e" x="284.765625"/>
      <use xlink:href="#DejaVuSans-75" x="348.144531"/>
      <use xlink:href="#DejaVuSans-6d" x="411.523438"/>
     </g>
    </g>
    <g id="line2d_17">
     <defs>
      <path id="m376ba96cc6" d="M -3 3 
L 3 -3 
M -3 -3 
L 3 3 
" style="stroke: #fe0100; stroke-opacity: 0.5; stroke-width: 1.5"/>
     </defs>
     <g>
      <use xlink:href="#m376ba96cc6" x="336.829375" y="83.926688" style="fill: #fe0100; fill-opacity: 0.5; stroke: #fe0100; stroke-opacity: 0.5; stroke-width: 1.5"/>
     </g>
    </g>
    <g id="text_18">
     <!-- Brass -->
     <g transform="translate(354.829375 87.426688) scale(0.1 -0.1)">
      <defs>
       <path id="DejaVuSans-42" d="M 1259 2228 
L 1259 519 
L 2272 519 
Q 2781 519 3026 730 
Q 3272 941 3272 1375 
Q 3272 1813 3026 2020 
Q 2781 2228 2272 2228 
L 1259 2228 
z
M 1259 4147 
L 1259 2741 
L 2194 2741 
Q 2656 2741 2882 2914 
Q 3109 3088 3109 3444 
Q 3109 3797 2882 3972 
Q 2656 4147 2194 4147 
L 1259 4147 
z
M 628 4666 
L 2241 4666 
Q 2963 4666 3353 4366 
Q 3744 4066 3744 3513 
Q 3744 3084 3544 2831 
Q 3344 2578 2956 2516 
Q 3422 2416 3680 2098 
Q 3938 1781 3938 1306 
Q 3938 681 3513 340 
Q 3088 0 2303 0 
L 628 0 
L 628 4666 
z
" transform="scale(0.015625)"/>
       <path id="DejaVuSans-72" d="M 2631 2963 
Q 2534 3019 2420 3045 
Q 2306 3072 2169 3072 
Q 1681 3072 1420 2755 
Q 1159 2438 1159 1844 
L 1159 0 
L 581 0 
L 581 3500 
L 1159 3500 
L 1159 2956 
Q 1341 3275 1631 3429 
Q 1922 3584 2338 3584 
Q 2397 3584 2469 3576 
Q 2541 3569 2628 3553 
L 2631 2963 
z
" transform="scale(0.015625)"/>
      </defs>
      <use xlink:href="#DejaVuSans-42"/>
      <use xlink:href="#DejaVuSans-72" x="68.603516"/>
      <use xlink:href="#DejaVuSans-61" x="109.716797"/>
      <use xlink:href="#DejaVuSans-73" x="170.996094"/>
      <use xlink:href="#DejaVuSans-73" x="223.095703"/>
     </g>
    </g>
    <g id="line2d_18">
     <defs>
      <path id="m339ca5d00e" d="M -3 3 
L 3 -3 
M -3 -3 
L 3 3 
" style="stroke: #00ff00; stroke-opacity: 0.5; stroke-width: 1.5"/>
     </defs>
     <g>
      <use xlink:href="#m339ca5d00e" x="336.829375" y="98.604813" style="fill: #00ff00; fill-opacity: 0.5; stroke: #00ff00; stroke-opacity: 0.5; stroke-width: 1.5"/>
     </g>
    </g>
    <g id="text_19">
     <!-- Bronze -->
     <g transform="translate(354.829375 102.104813) scale(0.1 -0.1)">
      <defs>
       <path id="DejaVuSans-6f" d="M 1959 3097 
Q 1497 3097 1228 2736 
Q 959 2375 959 1747 
Q 959 1119 1226 758 
Q 1494 397 1959 397 
Q 2419 397 2687 759 
Q 2956 1122 2956 1747 
Q 2956 2369 2687 2733 
Q 2419 3097 1959 3097 
z
M 1959 3584 
Q 2709 3584 3137 3096 
Q 3566 2609 3566 1747 
Q 3566 888 3137 398 
Q 2709 -91 1959 -91 
Q 1206 -91 779 398 
Q 353 888 353 1747 
Q 353 2609 779 3096 
Q 1206 3584 1959 3584 
z
" transform="scale(0.015625)"/>
       <path id="DejaVuSans-7a" d="M 353 3500 
L 3084 3500 
L 3084 2975 
L 922 459 
L 3084 459 
L 3084 0 
L 275 0 
L 275 525 
L 2438 3041 
L 353 3041 
L 353 3500 
z
" transform="scale(0.015625)"/>
      </defs>
      <use xlink:href="#DejaVuSans-42"/>
      <use xlink:href="#DejaVuSans-72" x="68.603516"/>
      <use xlink:href="#DejaVuSans-6f" x="107.466797"/>
      <use xlink:href="#DejaVuSans-6e" x="168.648438"/>
      <use xlink:href="#DejaVuSans-7a" x="232.027344"/>
      <use xlink:href="#DejaVuSans-65" x="284.517578"/>
     </g>
    </g>
   </g>
   <g id="legend_2">
    <g id="patch_8">
     <path d="M 324.829375 108.1845 
L 407.72 108.1845 
Q 409.72 108.1845 409.72 106.1845 
L 409.72 48.472 
Q 409.72 46.472 407.72 46.472 
L 324.829375 46.472 
Q 322.829375 46.472 322.829375 48.472 
L 322.829375 106.1845 
Q 322.829375 108.1845 324.829375 108.1845 
z
" style="fill: #001a1a; fill-opacity: 0.1; stroke: #cccccc; stroke-linejoin: miter"/>
    </g>
    <g id="text_20">
     <!-- Classes -->
     <g transform="translate(347.439531 58.070438) scale(0.1 -0.1)">
      <use xlink:href="#DejaVuSans-43"/>
      <use xlink:href="#DejaVuSans-6c" x="69.824219"/>
      <use xlink:href="#DejaVuSans-61" x="97.607422"/>
      <use xlink:href="#DejaVuSans-73" x="158.886719"/>
      <use xlink:href="#DejaVuSans-73" x="210.986328"/>
      <use xlink:href="#DejaVuSans-65" x="263.085938"/>
      <use xlink:href="#DejaVuSans-73" x="324.609375"/>
     </g>
    </g>
    <g id="line2d_19">
     <g>
      <use xlink:href="#mf4f86428c7" x="336.829375" y="69.248563" style="fill: #0000ff; fill-opacity: 0.5; stroke: #0000ff; stroke-opacity: 0.5; stroke-width: 1.5"/>
     </g>
    </g>
    <g id="text_21">
     <!-- Aluminum -->
     <g transform="translate(354.829375 72.748563) scale(0.1 -0.1)">
      <use xlink:href="#DejaVuSans-41"/>
      <use xlink:href="#DejaVuSans-6c" x="68.408203"/>
      <use xlink:href="#DejaVuSans-75" x="96.191406"/>
      <use xlink:href="#DejaVuSans-6d" x="159.570312"/>
      <use xlink:href="#DejaVuSans-69" x="256.982422"/>
      <use xlink:href="#DejaVuSans-6e" x="284.765625"/>
      <use xlink:href="#DejaVuSans-75" x="348.144531"/>
      <use xlink:href="#DejaVuSans-6d" x="411.523438"/>
     </g>
    </g>
    <g id="line2d_20">
     <g>
      <use xlink:href="#m376ba96cc6" x="336.829375" y="83.926688" style="fill: #fe0100; fill-opacity: 0.5; stroke: #fe0100; stroke-opacity: 0.5; stroke-width: 1.5"/>
     </g>
    </g>
    <g id="text_22">
     <!-- Brass -->
     <g transform="translate(354.829375 87.426688) scale(0.1 -0.1)">
      <use xlink:href="#DejaVuSans-42"/>
      <use xlink:href="#DejaVuSans-72" x="68.603516"/>
      <use xlink:href="#DejaVuSans-61" x="109.716797"/>
      <use xlink:href="#DejaVuSans-73" x="170.996094"/>
      <use xlink:href="#DejaVuSans-73" x="223.095703"/>
     </g>
    </g>
    <g id="line2d_21">
     <g>
      <use xlink:href="#m339ca5d00e" x="336.829375" y="98.604813" style="fill: #00ff00; fill-opacity: 0.5; stroke: #00ff00; stroke-opacity: 0.5; stroke-width: 1.5"/>
     </g>
    </g>
    <g id="text_23">
     <!-- Bronze -->
     <g transform="translate(354.829375 102.104813) scale(0.1 -0.1)">
      <use xlink:href="#DejaVuSans-42"/>
      <use xlink:href="#DejaVuSans-72" x="68.603516"/>
      <use xlink:href="#DejaVuSans-6f" x="107.466797"/>
      <use xlink:href="#DejaVuSans-6e" x="168.648438"/>
      <use xlink:href="#DejaVuSans-7a" x="232.027344"/>
      <use xlink:href="#DejaVuSans-65" x="284.517578"/>
     </g>
    </g>
   </g>
  </g>
 </g>
 <defs>
  <clipPath id="pf1253c51cf">
   <rect x="57.6" y="41.472" width="357.12" height="266.112"/>
  </clipPath>
 </defs>
</svg>
