<?xml version="1.0" encoding="utf-8" standalone="no"?>
<!DOCTYPE svg PUBLIC "-//W3C//DTD SVG 1.1//EN"
  "http://www.w3.org/Graphics/SVG/1.1/DTD/svg11.dtd">
<svg xmlns:xlink="http://www.w3.org/1999/xlink" width="460.8pt" height="345.6pt" viewBox="0 0 460.8 345.6" xmlns="http://www.w3.org/2000/svg" version="1.1">
 <metadata>
  <rdf:RDF xmlns:dc="http://purl.org/dc/elements/1.1/" xmlns:cc="http://creativecommons.org/ns#" xmlns:rdf="http://www.w3.org/1999/02/22-rdf-syntax-ns#">
   <cc:Work>
    <dc:type rdf:resource="http://purl.org/dc/dcmitype/StillImage"/>
    <dc:date>2024-06-25T10:55:05.612038</dc:date>
    <dc:format>image/svg+xml</dc:format>
    <dc:creator>
     <cc:Agent>
      <dc:title>Matplotlib v3.7.2, https://matplotlib.org/</dc:title>
     </cc:Agent>
    </dc:creator>
   </cc:Work>
  </rdf:RDF>
 </metadata>
 <defs>
  <style type="text/css">*{stroke-linejoin: round; stroke-linecap: butt}</style>
 </defs>
 <g id="figure_1">
  <g id="patch_1">
   <path d="M 0 345.6 
L 460.8 345.6 
L 460.8 0 
L 0 0 
z
" style="fill: #ffffff"/>
  </g>
  <g id="axes_1">
   <g id="patch_2">
    <path d="M 57.6 307.584 
L 414.72 307.584 
L 414.72 41.472 
L 57.6 41.472 
z
" style="fill: #ffffff"/>
   </g>
   <g id="PathCollection_1">
    <path d="M 371.46599 173.553808 
L 377.46599 167.553808 
M 371.46599 167.553808 
L 377.46599 173.553808 
" clip-path="url(#p37325847cb)" style="fill: #0000ff; fill-opacity: 0.5; stroke: #0000ff; stroke-opacity: 0.5; stroke-width: 1.5"/>
    <path d="M 209.814895 159.089084 
L 215.814895 153.089084 
M 209.814895 153.089084 
L 215.814895 159.089084 
" clip-path="url(#p37325847cb)" style="fill: #0000ff; fill-opacity: 0.5; stroke: #0000ff; stroke-opacity: 0.5; stroke-width: 1.5"/>
    <path d="M 213.211315 161.079029 
L 219.211315 155.079029 
M 213.211315 155.079029 
L 219.211315 161.079029 
" clip-path="url(#p37325847cb)" style="fill: #0000ff; fill-opacity: 0.5; stroke: #0000ff; stroke-opacity: 0.5; stroke-width: 1.5"/>
    <path d="M 145.266623 284.536456 
L 151.266623 278.536456 
M 145.266623 278.536456 
L 151.266623 284.536456 
" clip-path="url(#p37325847cb)" style="fill: #fe0100; fill-opacity: 0.5; stroke: #fe0100; stroke-opacity: 0.5; stroke-width: 1.5"/>
    <path d="M 130.234251 98.114259 
L 136.234251 92.114259 
M 130.234251 92.114259 
L 136.234251 98.114259 
" clip-path="url(#p37325847cb)" style="fill: #00ff00; fill-opacity: 0.5; stroke: #00ff00; stroke-opacity: 0.5; stroke-width: 1.5"/>
    <path d="M 185.610878 74.27298 
L 191.610878 68.27298 
M 185.610878 68.27298 
L 191.610878 74.27298 
" clip-path="url(#p37325847cb)" style="fill: #00ff00; fill-opacity: 0.5; stroke: #00ff00; stroke-opacity: 0.5; stroke-width: 1.5"/>
    <path d="M 245.379707 65.243602 
L 251.379707 59.243602 
M 245.379707 59.243602 
L 251.379707 65.243602 
" clip-path="url(#p37325847cb)" style="fill: #00ff00; fill-opacity: 0.5; stroke: #00ff00; stroke-opacity: 0.5; stroke-width: 1.5"/>
    <path d="M 209.578228 256.939815 
L 215.578228 250.939815 
M 209.578228 250.939815 
L 215.578228 256.939815 
" clip-path="url(#p37325847cb)" style="fill: #fe0100; fill-opacity: 0.5; stroke: #fe0100; stroke-opacity: 0.5; stroke-width: 1.5"/>
    <path d="M 111.471195 201.944579 
L 117.471195 195.944579 
M 111.471195 195.944579 
L 117.471195 201.944579 
" clip-path="url(#p37325847cb)" style="fill: #0000ff; fill-opacity: 0.5; stroke: #0000ff; stroke-opacity: 0.5; stroke-width: 1.5"/>
    <path d="M 164.466523 87.800503 
L 170.466523 81.800503 
M 164.466523 81.800503 
L 170.466523 87.800503 
" clip-path="url(#p37325847cb)" style="fill: #00ff00; fill-opacity: 0.5; stroke: #00ff00; stroke-opacity: 0.5; stroke-width: 1.5"/>
    <path d="M 111.206787 107.878445 
L 117.206787 101.878445 
M 111.206787 101.878445 
L 117.206787 107.878445 
" clip-path="url(#p37325847cb)" style="fill: #00ff00; fill-opacity: 0.5; stroke: #00ff00; stroke-opacity: 0.5; stroke-width: 1.5"/>
    <path d="M 240.278405 214.969646 
L 246.278405 208.969646 
M 240.278405 208.969646 
L 246.278405 214.969646 
" clip-path="url(#p37325847cb)" style="fill: #fe0100; fill-opacity: 0.5; stroke: #fe0100; stroke-opacity: 0.5; stroke-width: 1.5"/>
    <path d="M 339.8297 201.062601 
L 345.8297 195.062601 
M 339.8297 195.062601 
L 345.8297 201.062601 
" clip-path="url(#p37325847cb)" style="fill: #0000ff; fill-opacity: 0.5; stroke: #0000ff; stroke-opacity: 0.5; stroke-width: 1.5"/>
    <path d="M 206.018891 87.170787 
L 212.018891 81.170787 
M 206.018891 81.170787 
L 212.018891 87.170787 
" clip-path="url(#p37325847cb)" style="fill: #00ff00; fill-opacity: 0.5; stroke: #00ff00; stroke-opacity: 0.5; stroke-width: 1.5"/>
    <path d="M 106.4502 199.914686 
L 112.4502 193.914686 
M 106.4502 193.914686 
L 112.4502 199.914686 
" clip-path="url(#p37325847cb)" style="fill: #0000ff; fill-opacity: 0.5; stroke: #0000ff; stroke-opacity: 0.5; stroke-width: 1.5"/>
    <path d="M 140.464943 285.269737 
L 146.464943 279.269737 
M 140.464943 279.269737 
L 146.464943 285.269737 
" clip-path="url(#p37325847cb)" style="fill: #fe0100; fill-opacity: 0.5; stroke: #fe0100; stroke-opacity: 0.5; stroke-width: 1.5"/>
    <path d="M 165.566522 276.988278 
L 171.566522 270.988278 
M 165.566522 270.988278 
L 171.566522 276.988278 
" clip-path="url(#p37325847cb)" style="fill: #fe0100; fill-opacity: 0.5; stroke: #fe0100; stroke-opacity: 0.5; stroke-width: 1.5"/>
    <path d="M 380.71193 182.722418 
L 386.71193 176.722418 
M 380.71193 176.722418 
L 386.71193 182.722418 
" clip-path="url(#p37325847cb)" style="fill: #0000ff; fill-opacity: 0.5; stroke: #0000ff; stroke-opacity: 0.5; stroke-width: 1.5"/>
    <path d="M 268.388584 56.568 
L 274.388584 50.568 
M 268.388584 50.568 
L 274.388584 56.568 
" clip-path="url(#p37325847cb)" style="fill: #00ff00; fill-opacity: 0.5; stroke: #00ff00; stroke-opacity: 0.5; stroke-width: 1.5"/>
    <path d="M 104.116655 114.278604 
L 110.116655 108.278604 
M 104.116655 108.278604 
L 110.116655 114.278604 
" clip-path="url(#p37325847cb)" style="fill: #00ff00; fill-opacity: 0.5; stroke: #00ff00; stroke-opacity: 0.5; stroke-width: 1.5"/>
    <path d="M 242.179052 211.909798 
L 248.179052 205.909798 
M 242.179052 205.909798 
L 248.179052 211.909798 
" clip-path="url(#p37325847cb)" style="fill: #fe0100; fill-opacity: 0.5; stroke: #fe0100; stroke-opacity: 0.5; stroke-width: 1.5"/>
    <path d="M 376.196287 184.721611 
L 382.196287 178.721611 
M 376.196287 178.721611 
L 382.196287 184.721611 
" clip-path="url(#p37325847cb)" style="fill: #0000ff; fill-opacity: 0.5; stroke: #0000ff; stroke-opacity: 0.5; stroke-width: 1.5"/>
    <path d="M 205.377945 78.616822 
L 211.377945 72.616822 
M 205.377945 72.616822 
L 211.377945 78.616822 
" clip-path="url(#p37325847cb)" style="fill: #00ff00; fill-opacity: 0.5; stroke: #00ff00; stroke-opacity: 0.5; stroke-width: 1.5"/>
    <path d="M 225.84906 94.232054 
L 231.84906 88.232054 
M 225.84906 88.232054 
L 231.84906 94.232054 
" clip-path="url(#p37325847cb)" style="fill: #00ff00; fill-opacity: 0.5; stroke: #00ff00; stroke-opacity: 0.5; stroke-width: 1.5"/>
    <path d="M 79.754213 175.024252 
L 85.754213 169.024252 
M 79.754213 169.024252 
L 85.754213 175.024252 
" clip-path="url(#p37325847cb)" style="fill: #0000ff; fill-opacity: 0.5; stroke: #0000ff; stroke-opacity: 0.5; stroke-width: 1.5"/>
    <path d="M 349.030715 197.797569 
L 355.030715 191.797569 
M 349.030715 191.797569 
L 355.030715 197.797569 
" clip-path="url(#p37325847cb)" style="fill: #0000ff; fill-opacity: 0.5; stroke: #0000ff; stroke-opacity: 0.5; stroke-width: 1.5"/>
    <path d="M 211.46363 229.351913 
L 217.46363 223.351913 
M 211.46363 223.351913 
L 217.46363 229.351913 
" clip-path="url(#p37325847cb)" style="fill: #fe0100; fill-opacity: 0.5; stroke: #fe0100; stroke-opacity: 0.5; stroke-width: 1.5"/>
    <path d="M 223.833146 224.507209 
L 229.833146 218.507209 
M 223.833146 218.507209 
L 229.833146 224.507209 
" clip-path="url(#p37325847cb)" style="fill: #fe0100; fill-opacity: 0.5; stroke: #fe0100; stroke-opacity: 0.5; stroke-width: 1.5"/>
    <path d="M 153.679295 199.079722 
L 159.679295 193.079722 
M 153.679295 193.079722 
L 159.679295 199.079722 
" clip-path="url(#p37325847cb)" style="fill: #0000ff; fill-opacity: 0.5; stroke: #0000ff; stroke-opacity: 0.5; stroke-width: 1.5"/>
    <path d="M 222.070863 94.382612 
L 228.070863 88.382612 
M 222.070863 88.382612 
L 228.070863 94.382612 
" clip-path="url(#p37325847cb)" style="fill: #00ff00; fill-opacity: 0.5; stroke: #00ff00; stroke-opacity: 0.5; stroke-width: 1.5"/>
    <path d="M 235.532277 61.911659 
L 241.532277 55.911659 
M 235.532277 55.911659 
L 241.532277 61.911659 
" clip-path="url(#p37325847cb)" style="fill: #00ff00; fill-opacity: 0.5; stroke: #00ff00; stroke-opacity: 0.5; stroke-width: 1.5"/>
    <path d="M 103.419538 197.791013 
L 109.419538 191.791013 
M 103.419538 191.791013 
L 109.419538 197.791013 
" clip-path="url(#p37325847cb)" style="fill: #0000ff; fill-opacity: 0.5; stroke: #0000ff; stroke-opacity: 0.5; stroke-width: 1.5"/>
    <path d="M 109.211674 102.317196 
L 115.211674 96.317196 
M 109.211674 96.317196 
L 115.211674 102.317196 
" clip-path="url(#p37325847cb)" style="fill: #00ff00; fill-opacity: 0.5; stroke: #00ff00; stroke-opacity: 0.5; stroke-width: 1.5"/>
    <path d="M 139.029422 199.301824 
L 145.029422 193.301824 
M 139.029422 193.301824 
L 145.029422 199.301824 
" clip-path="url(#p37325847cb)" style="fill: #0000ff; fill-opacity: 0.5; stroke: #0000ff; stroke-opacity: 0.5; stroke-width: 1.5"/>
    <path d="M 207.240402 258.720313 
L 213.240402 252.720313 
M 207.240402 252.720313 
L 213.240402 258.720313 
" clip-path="url(#p37325847cb)" style="fill: #fe0100; fill-opacity: 0.5; stroke: #fe0100; stroke-opacity: 0.5; stroke-width: 1.5"/>
    <path d="M 225.485997 71.595158 
L 231.485997 65.595158 
M 225.485997 65.595158 
L 231.485997 71.595158 
" clip-path="url(#p37325847cb)" style="fill: #00ff00; fill-opacity: 0.5; stroke: #00ff00; stroke-opacity: 0.5; stroke-width: 1.5"/>
    <path d="M 338.213945 160.843289 
L 344.213945 154.843289 
M 338.213945 154.843289 
L 344.213945 160.843289 
" clip-path="url(#p37325847cb)" style="fill: #00ff00; fill-opacity: 0.5; stroke: #00ff00; stroke-opacity: 0.5; stroke-width: 1.5"/>
    <path d="M 366.560214 169.085003 
L 372.560214 163.085003 
M 366.560214 163.085003 
L 372.560214 169.085003 
" clip-path="url(#p37325847cb)" style="fill: #0000ff; fill-opacity: 0.5; stroke: #0000ff; stroke-opacity: 0.5; stroke-width: 1.5"/>
    <path d="M 126.427602 99.006163 
L 132.427602 93.006163 
M 126.427602 93.006163 
L 132.427602 99.006163 
" clip-path="url(#p37325847cb)" style="fill: #00ff00; fill-opacity: 0.5; stroke: #00ff00; stroke-opacity: 0.5; stroke-width: 1.5"/>
    <path d="M 155.010159 90.752835 
L 161.010159 84.752835 
M 155.010159 84.752835 
L 161.010159 90.752835 
" clip-path="url(#p37325847cb)" style="fill: #00ff00; fill-opacity: 0.5; stroke: #00ff00; stroke-opacity: 0.5; stroke-width: 1.5"/>
    <path d="M 207.417061 162.098534 
L 213.417061 156.098534 
M 207.417061 156.098534 
L 213.417061 162.098534 
" clip-path="url(#p37325847cb)" style="fill: #0000ff; fill-opacity: 0.5; stroke: #0000ff; stroke-opacity: 0.5; stroke-width: 1.5"/>
    <path d="M 140.851471 95.042056 
L 146.851471 89.042056 
M 140.851471 89.042056 
L 146.851471 95.042056 
" clip-path="url(#p37325847cb)" style="fill: #00ff00; fill-opacity: 0.5; stroke: #00ff00; stroke-opacity: 0.5; stroke-width: 1.5"/>
    <path d="M 395.487273 187.40213 
L 401.487273 181.40213 
M 395.487273 181.40213 
L 401.487273 187.40213 
" clip-path="url(#p37325847cb)" style="fill: #fe0100; fill-opacity: 0.5; stroke: #fe0100; stroke-opacity: 0.5; stroke-width: 1.5"/>
    <path d="M 159.034789 89.595541 
L 165.034789 83.595541 
M 159.034789 83.595541 
L 165.034789 89.595541 
" clip-path="url(#p37325847cb)" style="fill: #00ff00; fill-opacity: 0.5; stroke: #00ff00; stroke-opacity: 0.5; stroke-width: 1.5"/>
    <path d="M 219.792953 238.828308 
L 225.792953 232.828308 
M 219.792953 232.828308 
L 225.792953 238.828308 
" clip-path="url(#p37325847cb)" style="fill: #fe0100; fill-opacity: 0.5; stroke: #fe0100; stroke-opacity: 0.5; stroke-width: 1.5"/>
    <path d="M 235.533037 206.867743 
L 241.533037 200.867743 
M 235.533037 200.867743 
L 241.533037 206.867743 
" clip-path="url(#p37325847cb)" style="fill: #fe0100; fill-opacity: 0.5; stroke: #fe0100; stroke-opacity: 0.5; stroke-width: 1.5"/>
    <path d="M 371.171867 163.653745 
L 377.171867 157.653745 
M 371.171867 157.653745 
L 377.171867 163.653745 
" clip-path="url(#p37325847cb)" style="fill: #0000ff; fill-opacity: 0.5; stroke: #0000ff; stroke-opacity: 0.5; stroke-width: 1.5"/>
    <path d="M 110.886078 104.66636 
L 116.886078 98.66636 
M 110.886078 98.66636 
L 116.886078 104.66636 
" clip-path="url(#p37325847cb)" style="fill: #00ff00; fill-opacity: 0.5; stroke: #00ff00; stroke-opacity: 0.5; stroke-width: 1.5"/>
    <path d="M 334.852866 161.520586 
L 340.852866 155.520586 
M 334.852866 155.520586 
L 340.852866 161.520586 
" clip-path="url(#p37325847cb)" style="fill: #00ff00; fill-opacity: 0.5; stroke: #00ff00; stroke-opacity: 0.5; stroke-width: 1.5"/>
    <path d="M 81.554999 177.035858 
L 87.554999 171.035858 
M 81.554999 171.035858 
L 87.554999 177.035858 
" clip-path="url(#p37325847cb)" style="fill: #0000ff; fill-opacity: 0.5; stroke: #0000ff; stroke-opacity: 0.5; stroke-width: 1.5"/>
    <path d="M 146.573813 279.294065 
L 152.573813 273.294065 
M 146.573813 273.294065 
L 152.573813 279.294065 
" clip-path="url(#p37325847cb)" style="fill: #fe0100; fill-opacity: 0.5; stroke: #fe0100; stroke-opacity: 0.5; stroke-width: 1.5"/>
    <path d="M 236.235546 212.429988 
L 242.235546 206.429988 
M 236.235546 206.429988 
L 242.235546 212.429988 
" clip-path="url(#p37325847cb)" style="fill: #fe0100; fill-opacity: 0.5; stroke: #fe0100; stroke-opacity: 0.5; stroke-width: 1.5"/>
    <path d="M 124.883776 292.666337 
L 130.883776 286.666337 
M 124.883776 286.666337 
L 130.883776 292.666337 
" clip-path="url(#p37325847cb)" style="fill: #fe0100; fill-opacity: 0.5; stroke: #fe0100; stroke-opacity: 0.5; stroke-width: 1.5"/>
    <path d="M 121.437586 294.053917 
L 127.437586 288.053917 
M 121.437586 288.053917 
L 127.437586 294.053917 
" clip-path="url(#p37325847cb)" style="fill: #fe0100; fill-opacity: 0.5; stroke: #fe0100; stroke-opacity: 0.5; stroke-width: 1.5"/>
    <path d="M 72.548476 166.159657 
L 78.548476 160.159657 
M 72.548476 160.159657 
L 78.548476 166.159657 
" clip-path="url(#p37325847cb)" style="fill: #0000ff; fill-opacity: 0.5; stroke: #0000ff; stroke-opacity: 0.5; stroke-width: 1.5"/>
    <path d="M 151.804108 279.582788 
L 157.804108 273.582788 
M 151.804108 273.582788 
L 157.804108 279.582788 
" clip-path="url(#p37325847cb)" style="fill: #fe0100; fill-opacity: 0.5; stroke: #fe0100; stroke-opacity: 0.5; stroke-width: 1.5"/>
    <path d="M 340.565025 203.335267 
L 346.565025 197.335267 
M 340.565025 197.335267 
L 346.565025 203.335267 
" clip-path="url(#p37325847cb)" style="fill: #0000ff; fill-opacity: 0.5; stroke: #0000ff; stroke-opacity: 0.5; stroke-width: 1.5"/>
    <path d="M 144.44085 198.515369 
L 150.44085 192.515369 
M 144.44085 192.515369 
L 150.44085 198.515369 
" clip-path="url(#p37325847cb)" style="fill: #0000ff; fill-opacity: 0.5; stroke: #0000ff; stroke-opacity: 0.5; stroke-width: 1.5"/>
    <path d="M 114.78978 292.20777 
L 120.78978 286.20777 
M 114.78978 286.20777 
L 120.78978 292.20777 
" clip-path="url(#p37325847cb)" style="fill: #fe0100; fill-opacity: 0.5; stroke: #fe0100; stroke-opacity: 0.5; stroke-width: 1.5"/>
    <path d="M 234.429151 67.339853 
L 240.429151 61.339853 
M 234.429151 61.339853 
L 240.429151 67.339853 
" clip-path="url(#p37325847cb)" style="fill: #00ff00; fill-opacity: 0.5; stroke: #00ff00; stroke-opacity: 0.5; stroke-width: 1.5"/>
    <path d="M 198.917749 82.972446 
L 204.917749 76.972446 
M 198.917749 76.972446 
L 204.917749 82.972446 
" clip-path="url(#p37325847cb)" style="fill: #00ff00; fill-opacity: 0.5; stroke: #00ff00; stroke-opacity: 0.5; stroke-width: 1.5"/>
    <path d="M 125.167255 298.488 
L 131.167255 292.488 
M 125.167255 292.488 
L 131.167255 298.488 
" clip-path="url(#p37325847cb)" style="fill: #fe0100; fill-opacity: 0.5; stroke: #fe0100; stroke-opacity: 0.5; stroke-width: 1.5"/>
    <path d="M 352.24828 196.276227 
L 358.24828 190.276227 
M 352.24828 190.276227 
L 358.24828 196.276227 
" clip-path="url(#p37325847cb)" style="fill: #0000ff; fill-opacity: 0.5; stroke: #0000ff; stroke-opacity: 0.5; stroke-width: 1.5"/>
    <path d="M 389.197183 185.185188 
L 395.197183 179.185188 
M 389.197183 179.185188 
L 395.197183 185.185188 
" clip-path="url(#p37325847cb)" style="fill: #fe0100; fill-opacity: 0.5; stroke: #fe0100; stroke-opacity: 0.5; stroke-width: 1.5"/>
    <path d="M 172.660465 84.995553 
L 178.660465 78.995553 
M 172.660465 78.995553 
L 178.660465 84.995553 
" clip-path="url(#p37325847cb)" style="fill: #00ff00; fill-opacity: 0.5; stroke: #00ff00; stroke-opacity: 0.5; stroke-width: 1.5"/>
    <path d="M 213.996722 253.488471 
L 219.996722 247.488471 
M 213.996722 247.488471 
L 219.996722 253.488471 
" clip-path="url(#p37325847cb)" style="fill: #fe0100; fill-opacity: 0.5; stroke: #fe0100; stroke-opacity: 0.5; stroke-width: 1.5"/>
    <path d="M 140.261976 276.100136 
L 146.261976 270.100136 
M 140.261976 270.100136 
L 146.261976 276.100136 
" clip-path="url(#p37325847cb)" style="fill: #fe0100; fill-opacity: 0.5; stroke: #fe0100; stroke-opacity: 0.5; stroke-width: 1.5"/>
    <path d="M 373.466803 161.892199 
L 379.466803 155.892199 
M 373.466803 155.892199 
L 379.466803 161.892199 
" clip-path="url(#p37325847cb)" style="fill: #0000ff; fill-opacity: 0.5; stroke: #0000ff; stroke-opacity: 0.5; stroke-width: 1.5"/>
    <path d="M 108.096253 114.764638 
L 114.096253 108.764638 
M 108.096253 108.764638 
L 114.096253 114.764638 
" clip-path="url(#p37325847cb)" style="fill: #00ff00; fill-opacity: 0.5; stroke: #00ff00; stroke-opacity: 0.5; stroke-width: 1.5"/>
    <path d="M 380.530784 174.166616 
L 386.530784 168.166616 
M 380.530784 168.166616 
L 386.530784 174.166616 
" clip-path="url(#p37325847cb)" style="fill: #0000ff; fill-opacity: 0.5; stroke: #0000ff; stroke-opacity: 0.5; stroke-width: 1.5"/>
    <path d="M 189.238841 75.649772 
L 195.238841 69.649772 
M 189.238841 69.649772 
L 195.238841 75.649772 
" clip-path="url(#p37325847cb)" style="fill: #00ff00; fill-opacity: 0.5; stroke: #00ff00; stroke-opacity: 0.5; stroke-width: 1.5"/>
    <path d="M 224.318677 215.440841 
L 230.318677 209.440841 
M 224.318677 209.440841 
L 230.318677 215.440841 
" clip-path="url(#p37325847cb)" style="fill: #fe0100; fill-opacity: 0.5; stroke: #fe0100; stroke-opacity: 0.5; stroke-width: 1.5"/>
    <path d="M 376.964808 176.289698 
L 382.964808 170.289698 
M 376.964808 170.289698 
L 382.964808 176.289698 
" clip-path="url(#p37325847cb)" style="fill: #0000ff; fill-opacity: 0.5; stroke: #0000ff; stroke-opacity: 0.5; stroke-width: 1.5"/>
    <path d="M 99.681023 195.119056 
L 105.681023 189.119056 
M 99.681023 189.119056 
L 105.681023 195.119056 
" clip-path="url(#p37325847cb)" style="fill: #0000ff; fill-opacity: 0.5; stroke: #0000ff; stroke-opacity: 0.5; stroke-width: 1.5"/>
    <path d="M 225.488981 221.283751 
L 231.488981 215.283751 
M 225.488981 215.283751 
L 231.488981 221.283751 
" clip-path="url(#p37325847cb)" style="fill: #fe0100; fill-opacity: 0.5; stroke: #fe0100; stroke-opacity: 0.5; stroke-width: 1.5"/>
    <path d="M 264.929307 57.479873 
L 270.929307 51.479873 
M 264.929307 51.479873 
L 270.929307 57.479873 
" clip-path="url(#p37325847cb)" style="fill: #00ff00; fill-opacity: 0.5; stroke: #00ff00; stroke-opacity: 0.5; stroke-width: 1.5"/>
    <path d="M 168.356193 275.193116 
L 174.356193 269.193116 
M 168.356193 269.193116 
L 174.356193 275.193116 
" clip-path="url(#p37325847cb)" style="fill: #fe0100; fill-opacity: 0.5; stroke: #fe0100; stroke-opacity: 0.5; stroke-width: 1.5"/>
    <path d="M 331.996072 203.810858 
L 337.996072 197.810858 
M 331.996072 197.810858 
L 337.996072 203.810858 
" clip-path="url(#p37325847cb)" style="fill: #0000ff; fill-opacity: 0.5; stroke: #0000ff; stroke-opacity: 0.5; stroke-width: 1.5"/>
    <path d="M 219.52021 234.685179 
L 225.52021 228.685179 
M 219.52021 228.685179 
L 225.52021 234.685179 
" clip-path="url(#p37325847cb)" style="fill: #fe0100; fill-opacity: 0.5; stroke: #fe0100; stroke-opacity: 0.5; stroke-width: 1.5"/>
    <path d="M 149.566253 196.803572 
L 155.566253 190.803572 
M 149.566253 190.803572 
L 155.566253 196.803572 
" clip-path="url(#p37325847cb)" style="fill: #0000ff; fill-opacity: 0.5; stroke: #0000ff; stroke-opacity: 0.5; stroke-width: 1.5"/>
    <path d="M 70.832727 164.083893 
L 76.832727 158.083893 
M 70.832727 158.083893 
L 76.832727 164.083893 
" clip-path="url(#p37325847cb)" style="fill: #0000ff; fill-opacity: 0.5; stroke: #0000ff; stroke-opacity: 0.5; stroke-width: 1.5"/>
    <path d="M 203.680302 81.155477 
L 209.680302 75.155477 
M 203.680302 75.155477 
L 209.680302 81.155477 
" clip-path="url(#p37325847cb)" style="fill: #00ff00; fill-opacity: 0.5; stroke: #00ff00; stroke-opacity: 0.5; stroke-width: 1.5"/>
    <path d="M 218.827757 231.616023 
L 224.827757 225.616023 
M 218.827757 225.616023 
L 224.827757 231.616023 
" clip-path="url(#p37325847cb)" style="fill: #fe0100; fill-opacity: 0.5; stroke: #fe0100; stroke-opacity: 0.5; stroke-width: 1.5"/>
    <path d="M 220.510448 74.754311 
L 226.510448 68.754311 
M 220.510448 68.754311 
L 226.510448 74.754311 
" clip-path="url(#p37325847cb)" style="fill: #00ff00; fill-opacity: 0.5; stroke: #00ff00; stroke-opacity: 0.5; stroke-width: 1.5"/>
    <path d="M 242.128998 66.74919 
L 248.128998 60.74919 
M 242.128998 60.74919 
L 248.128998 66.74919 
" clip-path="url(#p37325847cb)" style="fill: #00ff00; fill-opacity: 0.5; stroke: #00ff00; stroke-opacity: 0.5; stroke-width: 1.5"/>
    <path d="M 75.525434 170.187063 
L 81.525434 164.187063 
M 75.525434 164.187063 
L 81.525434 170.187063 
" clip-path="url(#p37325847cb)" style="fill: #0000ff; fill-opacity: 0.5; stroke: #0000ff; stroke-opacity: 0.5; stroke-width: 1.5"/>
   </g>
   <g id="matplotlib.axis_1">
    <g id="xtick_1">
     <g id="line2d_1">
      <defs>
       <path id="m396c3665d6" d="M 0 0 
L 0 3.5 
" style="stroke: #000000; stroke-width: 0.8"/>
      </defs>
      <g>
       <use xlink:href="#m396c3665d6" x="73.430957" y="307.584" style="stroke: #000000; stroke-width: 0.8"/>
      </g>
     </g>
     <g id="text_1">
      <!-- −30 -->
      <g transform="translate(62.878613 322.182437) scale(0.1 -0.1)">
       <defs>
        <path id="DejaVuSans-2212" d="M 678 2272 
L 4684 2272 
L 4684 1741 
L 678 1741 
L 678 2272 
z
" transform="scale(0.015625)"/>
        <path id="DejaVuSans-33" d="M 2597 2516 
Q 3050 2419 3304 2112 
Q 3559 1806 3559 1356 
Q 3559 666 3084 287 
Q 2609 -91 1734 -91 
Q 1441 -91 1130 -33 
Q 819 25 488 141 
L 488 750 
Q 750 597 1062 519 
Q 1375 441 1716 441 
Q 2309 441 2620 675 
Q 2931 909 2931 1356 
Q 2931 1769 2642 2001 
Q 2353 2234 1838 2234 
L 1294 2234 
L 1294 2753 
L 1863 2753 
Q 2328 2753 2575 2939 
Q 2822 3125 2822 3475 
Q 2822 3834 2567 4026 
Q 2313 4219 1838 4219 
Q 1578 4219 1281 4162 
Q 984 4106 628 3988 
L 628 4550 
Q 988 4650 1302 4700 
Q 1616 4750 1894 4750 
Q 2613 4750 3031 4423 
Q 3450 4097 3450 3541 
Q 3450 3153 3228 2886 
Q 3006 2619 2597 2516 
z
" transform="scale(0.015625)"/>
        <path id="DejaVuSans-30" d="M 2034 4250 
Q 1547 4250 1301 3770 
Q 1056 3291 1056 2328 
Q 1056 1369 1301 889 
Q 1547 409 2034 409 
Q 2525 409 2770 889 
Q 3016 1369 3016 2328 
Q 3016 3291 2770 3770 
Q 2525 4250 2034 4250 
z
M 2034 4750 
Q 2819 4750 3233 4129 
Q 3647 3509 3647 2328 
Q 3647 1150 3233 529 
Q 2819 -91 2034 -91 
Q 1250 -91 836 529 
Q 422 1150 422 2328 
Q 422 3509 836 4129 
Q 1250 4750 2034 4750 
z
" transform="scale(0.015625)"/>
       </defs>
       <use xlink:href="#DejaVuSans-2212"/>
       <use xlink:href="#DejaVuSans-33" x="83.789062"/>
       <use xlink:href="#DejaVuSans-30" x="147.412109"/>
      </g>
     </g>
    </g>
    <g id="xtick_2">
     <g id="line2d_2">
      <g>
       <use xlink:href="#m396c3665d6" x="116.490611" y="307.584" style="stroke: #000000; stroke-width: 0.8"/>
      </g>
     </g>
     <g id="text_2">
      <!-- −20 -->
      <g transform="translate(105.938267 322.182437) scale(0.1 -0.1)">
       <defs>
        <path id="DejaVuSans-32" d="M 1228 531 
L 3431 531 
L 3431 0 
L 469 0 
L 469 531 
Q 828 903 1448 1529 
Q 2069 2156 2228 2338 
Q 2531 2678 2651 2914 
Q 2772 3150 2772 3378 
Q 2772 3750 2511 3984 
Q 2250 4219 1831 4219 
Q 1534 4219 1204 4116 
Q 875 4013 500 3803 
L 500 4441 
Q 881 4594 1212 4672 
Q 1544 4750 1819 4750 
Q 2544 4750 2975 4387 
Q 3406 4025 3406 3419 
Q 3406 3131 3298 2873 
Q 3191 2616 2906 2266 
Q 2828 2175 2409 1742 
Q 1991 1309 1228 531 
z
" transform="scale(0.015625)"/>
       </defs>
       <use xlink:href="#DejaVuSans-2212"/>
       <use xlink:href="#DejaVuSans-32" x="83.789062"/>
       <use xlink:href="#DejaVuSans-30" x="147.412109"/>
      </g>
     </g>
    </g>
    <g id="xtick_3">
     <g id="line2d_3">
      <g>
       <use xlink:href="#m396c3665d6" x="159.550264" y="307.584" style="stroke: #000000; stroke-width: 0.8"/>
      </g>
     </g>
     <g id="text_3">
      <!-- −10 -->
      <g transform="translate(148.997921 322.182437) scale(0.1 -0.1)">
       <defs>
        <path id="DejaVuSans-31" d="M 794 531 
L 1825 531 
L 1825 4091 
L 703 3866 
L 703 4441 
L 1819 4666 
L 2450 4666 
L 2450 531 
L 3481 531 
L 3481 0 
L 794 0 
L 794 531 
z
" transform="scale(0.015625)"/>
       </defs>
       <use xlink:href="#DejaVuSans-2212"/>
       <use xlink:href="#DejaVuSans-31" x="83.789062"/>
       <use xlink:href="#DejaVuSans-30" x="147.412109"/>
      </g>
     </g>
    </g>
    <g id="xtick_4">
     <g id="line2d_4">
      <g>
       <use xlink:href="#m396c3665d6" x="202.609918" y="307.584" style="stroke: #000000; stroke-width: 0.8"/>
      </g>
     </g>
     <g id="text_4">
      <!-- 0 -->
      <g transform="translate(199.428668 322.182437) scale(0.1 -0.1)">
       <use xlink:href="#DejaVuSans-30"/>
      </g>
     </g>
    </g>
    <g id="xtick_5">
     <g id="line2d_5">
      <g>
       <use xlink:href="#m396c3665d6" x="245.669572" y="307.584" style="stroke: #000000; stroke-width: 0.8"/>
      </g>
     </g>
     <g id="text_5">
      <!-- 10 -->
      <g transform="translate(239.307072 322.182437) scale(0.1 -0.1)">
       <use xlink:href="#DejaVuSans-31"/>
       <use xlink:href="#DejaVuSans-30" x="63.623047"/>
      </g>
     </g>
    </g>
    <g id="xtick_6">
     <g id="line2d_6">
      <g>
       <use xlink:href="#m396c3665d6" x="288.729226" y="307.584" style="stroke: #000000; stroke-width: 0.8"/>
      </g>
     </g>
     <g id="text_6">
      <!-- 20 -->
      <g transform="translate(282.366726 322.182437) scale(0.1 -0.1)">
       <use xlink:href="#DejaVuSans-32"/>
       <use xlink:href="#DejaVuSans-30" x="63.623047"/>
      </g>
     </g>
    </g>
    <g id="xtick_7">
     <g id="line2d_7">
      <g>
       <use xlink:href="#m396c3665d6" x="331.78888" y="307.584" style="stroke: #000000; stroke-width: 0.8"/>
      </g>
     </g>
     <g id="text_7">
      <!-- 30 -->
      <g transform="translate(325.42638 322.182437) scale(0.1 -0.1)">
       <use xlink:href="#DejaVuSans-33"/>
       <use xlink:href="#DejaVuSans-30" x="63.623047"/>
      </g>
     </g>
    </g>
    <g id="xtick_8">
     <g id="line2d_8">
      <g>
       <use xlink:href="#m396c3665d6" x="374.848534" y="307.584" style="stroke: #000000; stroke-width: 0.8"/>
      </g>
     </g>
     <g id="text_8">
      <!-- 40 -->
      <g transform="translate(368.486034 322.182437) scale(0.1 -0.1)">
       <defs>
        <path id="DejaVuSans-34" d="M 2419 4116 
L 825 1625 
L 2419 1625 
L 2419 4116 
z
M 2253 4666 
L 3047 4666 
L 3047 1625 
L 3713 1625 
L 3713 1100 
L 3047 1100 
L 3047 0 
L 2419 0 
L 2419 1100 
L 313 1100 
L 313 1709 
L 2253 4666 
z
" transform="scale(0.015625)"/>
       </defs>
       <use xlink:href="#DejaVuSans-34"/>
       <use xlink:href="#DejaVuSans-30" x="63.623047"/>
      </g>
     </g>
    </g>
   </g>
   <g id="matplotlib.axis_2">
    <g id="ytick_1">
     <g id="line2d_9">
      <defs>
       <path id="m104f3ed115" d="M 0 0 
L -3.5 0 
" style="stroke: #000000; stroke-width: 0.8"/>
      </defs>
      <g>
       <use xlink:href="#m104f3ed115" x="57.6" y="267.528259" style="stroke: #000000; stroke-width: 0.8"/>
      </g>
     </g>
     <g id="text_9">
      <!-- −40 -->
      <g transform="translate(29.495313 271.327477) scale(0.1 -0.1)">
       <use xlink:href="#DejaVuSans-2212"/>
       <use xlink:href="#DejaVuSans-34" x="83.789062"/>
       <use xlink:href="#DejaVuSans-30" x="147.412109"/>
      </g>
     </g>
    </g>
    <g id="ytick_2">
     <g id="line2d_10">
      <g>
       <use xlink:href="#m104f3ed115" x="57.6" y="221.016133" style="stroke: #000000; stroke-width: 0.8"/>
      </g>
     </g>
     <g id="text_10">
      <!-- −20 -->
      <g transform="translate(29.495313 224.815352) scale(0.1 -0.1)">
       <use xlink:href="#DejaVuSans-2212"/>
       <use xlink:href="#DejaVuSans-32" x="83.789062"/>
       <use xlink:href="#DejaVuSans-30" x="147.412109"/>
      </g>
     </g>
    </g>
    <g id="ytick_3">
     <g id="line2d_11">
      <g>
       <use xlink:href="#m104f3ed115" x="57.6" y="174.504007" style="stroke: #000000; stroke-width: 0.8"/>
      </g>
     </g>
     <g id="text_11">
      <!-- 0 -->
      <g transform="translate(44.2375 178.303226) scale(0.1 -0.1)">
       <use xlink:href="#DejaVuSans-30"/>
      </g>
     </g>
    </g>
    <g id="ytick_4">
     <g id="line2d_12">
      <g>
       <use xlink:href="#m104f3ed115" x="57.6" y="127.991881" style="stroke: #000000; stroke-width: 0.8"/>
      </g>
     </g>
     <g id="text_12">
      <!-- 20 -->
      <g transform="translate(37.875 131.7911) scale(0.1 -0.1)">
       <use xlink:href="#DejaVuSans-32"/>
       <use xlink:href="#DejaVuSans-30" x="63.623047"/>
      </g>
     </g>
    </g>
    <g id="ytick_5">
     <g id="line2d_13">
      <g>
       <use xlink:href="#m104f3ed115" x="57.6" y="81.479756" style="stroke: #000000; stroke-width: 0.8"/>
      </g>
     </g>
     <g id="text_13">
      <!-- 40 -->
      <g transform="translate(37.875 85.278974) scale(0.1 -0.1)">
       <use xlink:href="#DejaVuSans-34"/>
       <use xlink:href="#DejaVuSans-30" x="63.623047"/>
      </g>
     </g>
    </g>
   </g>
   <g id="patch_3">
    <path d="M 57.6 307.584 
L 57.6 41.472 
" style="fill: none; stroke: #000000; stroke-width: 0.8; stroke-linejoin: miter; stroke-linecap: square"/>
   </g>
   <g id="patch_4">
    <path d="M 414.72 307.584 
L 414.72 41.472 
" style="fill: none; stroke: #000000; stroke-width: 0.8; stroke-linejoin: miter; stroke-linecap: square"/>
   </g>
   <g id="patch_5">
    <path d="M 57.6 307.584 
L 414.72 307.584 
" style="fill: none; stroke: #000000; stroke-width: 0.8; stroke-linejoin: miter; stroke-linecap: square"/>
   </g>
   <g id="patch_6">
    <path d="M 57.6 41.472 
L 414.72 41.472 
" style="fill: none; stroke: #000000; stroke-width: 0.8; stroke-linejoin: miter; stroke-linecap: square"/>
   </g>
   <g id="legend_1">
    <g id="patch_7">
     <path d="M 324.829375 108.1845 
L 407.72 108.1845 
Q 409.72 108.1845 409.72 106.1845 
L 409.72 48.472 
Q 409.72 46.472 407.72 46.472 
L 324.829375 46.472 
Q 322.829375 46.472 322.829375 48.472 
L 322.829375 106.1845 
Q 322.829375 108.1845 324.829375 108.1845 
z
" style="fill: #001a1a; fill-opacity: 0.1; stroke: #cccccc; stroke-linejoin: miter"/>
    </g>
    <g id="text_14">
     <!-- Classes -->
     <g transform="translate(347.439531 58.070438) scale(0.1 -0.1)">
      <defs>
       <path id="DejaVuSans-43" d="M 4122 4306 
L 4122 3641 
Q 3803 3938 3442 4084 
Q 3081 4231 2675 4231 
Q 1875 4231 1450 3742 
Q 1025 3253 1025 2328 
Q 1025 1406 1450 917 
Q 1875 428 2675 428 
Q 3081 428 3442 575 
Q 3803 722 4122 1019 
L 4122 359 
Q 3791 134 3420 21 
Q 3050 -91 2638 -91 
Q 1578 -91 968 557 
Q 359 1206 359 2328 
Q 359 3453 968 4101 
Q 1578 4750 2638 4750 
Q 3056 4750 3426 4639 
Q 3797 4528 4122 4306 
z
" transform="scale(0.015625)"/>
       <path id="DejaVuSans-6c" d="M 603 4863 
L 1178 4863 
L 1178 0 
L 603 0 
L 603 4863 
z
" transform="scale(0.015625)"/>
       <path id="DejaVuSans-61" d="M 2194 1759 
Q 1497 1759 1228 1600 
Q 959 1441 959 1056 
Q 959 750 1161 570 
Q 1363 391 1709 391 
Q 2188 391 2477 730 
Q 2766 1069 2766 1631 
L 2766 1759 
L 2194 1759 
z
M 3341 1997 
L 3341 0 
L 2766 0 
L 2766 531 
Q 2569 213 2275 61 
Q 1981 -91 1556 -91 
Q 1019 -91 701 211 
Q 384 513 384 1019 
Q 384 1609 779 1909 
Q 1175 2209 1959 2209 
L 2766 2209 
L 2766 2266 
Q 2766 2663 2505 2880 
Q 2244 3097 1772 3097 
Q 1472 3097 1187 3025 
Q 903 2953 641 2809 
L 641 3341 
Q 956 3463 1253 3523 
Q 1550 3584 1831 3584 
Q 2591 3584 2966 3190 
Q 3341 2797 3341 1997 
z
" transform="scale(0.015625)"/>
       <path id="DejaVuSans-73" d="M 2834 3397 
L 2834 2853 
Q 2591 2978 2328 3040 
Q 2066 3103 1784 3103 
Q 1356 3103 1142 2972 
Q 928 2841 928 2578 
Q 928 2378 1081 2264 
Q 1234 2150 1697 2047 
L 1894 2003 
Q 2506 1872 2764 1633 
Q 3022 1394 3022 966 
Q 3022 478 2636 193 
Q 2250 -91 1575 -91 
Q 1294 -91 989 -36 
Q 684 19 347 128 
L 347 722 
Q 666 556 975 473 
Q 1284 391 1588 391 
Q 1994 391 2212 530 
Q 2431 669 2431 922 
Q 2431 1156 2273 1281 
Q 2116 1406 1581 1522 
L 1381 1569 
Q 847 1681 609 1914 
Q 372 2147 372 2553 
Q 372 3047 722 3315 
Q 1072 3584 1716 3584 
Q 2034 3584 2315 3537 
Q 2597 3491 2834 3397 
z
" transform="scale(0.015625)"/>
       <path id="DejaVuSans-65" d="M 3597 1894 
L 3597 1613 
L 953 1613 
Q 991 1019 1311 708 
Q 1631 397 2203 397 
Q 2534 397 2845 478 
Q 3156 559 3463 722 
L 3463 178 
Q 3153 47 2828 -22 
Q 2503 -91 2169 -91 
Q 1331 -91 842 396 
Q 353 884 353 1716 
Q 353 2575 817 3079 
Q 1281 3584 2069 3584 
Q 2775 3584 3186 3129 
Q 3597 2675 3597 1894 
z
M 3022 2063 
Q 3016 2534 2758 2815 
Q 2500 3097 2075 3097 
Q 1594 3097 1305 2825 
Q 1016 2553 972 2059 
L 3022 2063 
z
" transform="scale(0.015625)"/>
      </defs>
      <use xlink:href="#DejaVuSans-43"/>
      <use xlink:href="#DejaVuSans-6c" x="69.824219"/>
      <use xlink:href="#DejaVuSans-61" x="97.607422"/>
      <use xlink:href="#DejaVuSans-73" x="158.886719"/>
      <use xlink:href="#DejaVuSans-73" x="210.986328"/>
      <use xlink:href="#DejaVuSans-65" x="263.085938"/>
      <use xlink:href="#DejaVuSans-73" x="324.609375"/>
     </g>
    </g>
    <g id="line2d_14">
     <defs>
      <path id="mb40ee3f619" d="M -3 3 
L 3 -3 
M -3 -3 
L 3 3 
" style="stroke: #0000ff; stroke-opacity: 0.5; stroke-width: 1.5"/>
     </defs>
     <g>
      <use xlink:href="#mb40ee3f619" x="336.829375" y="69.248563" style="fill: #0000ff; fill-opacity: 0.5; stroke: #0000ff; stroke-opacity: 0.5; stroke-width: 1.5"/>
     </g>
    </g>
    <g id="text_15">
     <!-- Aluminum -->
     <g transform="translate(354.829375 72.748563) scale(0.1 -0.1)">
      <defs>
       <path id="DejaVuSans-41" d="M 2188 4044 
L 1331 1722 
L 3047 1722 
L 2188 4044 
z
M 1831 4666 
L 2547 4666 
L 4325 0 
L 3669 0 
L 3244 1197 
L 1141 1197 
L 716 0 
L 50 0 
L 1831 4666 
z
" transform="scale(0.015625)"/>
       <path id="DejaVuSans-75" d="M 544 1381 
L 544 3500 
L 1119 3500 
L 1119 1403 
Q 1119 906 1312 657 
Q 1506 409 1894 409 
Q 2359 409 2629 706 
Q 2900 1003 2900 1516 
L 2900 3500 
L 3475 3500 
L 3475 0 
L 2900 0 
L 2900 538 
Q 2691 219 2414 64 
Q 2138 -91 1772 -91 
Q 1169 -91 856 284 
Q 544 659 544 1381 
z
M 1991 3584 
L 1991 3584 
z
" transform="scale(0.015625)"/>
       <path id="DejaVuSans-6d" d="M 3328 2828 
Q 3544 3216 3844 3400 
Q 4144 3584 4550 3584 
Q 5097 3584 5394 3201 
Q 5691 2819 5691 2113 
L 5691 0 
L 5113 0 
L 5113 2094 
Q 5113 2597 4934 2840 
Q 4756 3084 4391 3084 
Q 3944 3084 3684 2787 
Q 3425 2491 3425 1978 
L 3425 0 
L 2847 0 
L 2847 2094 
Q 2847 2600 2669 2842 
Q 2491 3084 2119 3084 
Q 1678 3084 1418 2786 
Q 1159 2488 1159 1978 
L 1159 0 
L 581 0 
L 581 3500 
L 1159 3500 
L 1159 2956 
Q 1356 3278 1631 3431 
Q 1906 3584 2284 3584 
Q 2666 3584 2933 3390 
Q 3200 3197 3328 2828 
z
" transform="scale(0.015625)"/>
       <path id="DejaVuSans-69" d="M 603 3500 
L 1178 3500 
L 1178 0 
L 603 0 
L 603 3500 
z
M 603 4863 
L 1178 4863 
L 1178 4134 
L 603 4134 
L 603 4863 
z
" transform="scale(0.015625)"/>
       <path id="DejaVuSans-6e" d="M 3513 2113 
L 3513 0 
L 2938 0 
L 2938 2094 
Q 2938 2591 2744 2837 
Q 2550 3084 2163 3084 
Q 1697 3084 1428 2787 
Q 1159 2491 1159 1978 
L 1159 0 
L 581 0 
L 581 3500 
L 1159 3500 
L 1159 2956 
Q 1366 3272 1645 3428 
Q 1925 3584 2291 3584 
Q 2894 3584 3203 3211 
Q 3513 2838 3513 2113 
z
" transform="scale(0.015625)"/>
      </defs>
      <use xlink:href="#DejaVuSans-41"/>
      <use xlink:href="#DejaVuSans-6c" x="68.408203"/>
      <use xlink:href="#DejaVuSans-75" x="96.191406"/>
      <use xlink:href="#DejaVuSans-6d" x="159.570312"/>
      <use xlink:href="#DejaVuSans-69" x="256.982422"/>
      <use xlink:href="#DejaVuSans-6e" x="284.765625"/>
      <use xlink:href="#DejaVuSans-75" x="348.144531"/>
      <use xlink:href="#DejaVuSans-6d" x="411.523438"/>
     </g>
    </g>
    <g id="line2d_15">
     <defs>
      <path id="meb9c66b772" d="M -3 3 
L 3 -3 
M -3 -3 
L 3 3 
" style="stroke: #fe0100; stroke-opacity: 0.5; stroke-width: 1.5"/>
     </defs>
     <g>
      <use xlink:href="#meb9c66b772" x="336.829375" y="83.926688" style="fill: #fe0100; fill-opacity: 0.5; stroke: #fe0100; stroke-opacity: 0.5; stroke-width: 1.5"/>
     </g>
    </g>
    <g id="text_16">
     <!-- Brass -->
     <g transform="translate(354.829375 87.426688) scale(0.1 -0.1)">
      <defs>
       <path id="DejaVuSans-42" d="M 1259 2228 
L 1259 519 
L 2272 519 
Q 2781 519 3026 730 
Q 3272 941 3272 1375 
Q 3272 1813 3026 2020 
Q 2781 2228 2272 2228 
L 1259 2228 
z
M 1259 4147 
L 1259 2741 
L 2194 2741 
Q 2656 2741 2882 2914 
Q 3109 3088 3109 3444 
Q 3109 3797 2882 3972 
Q 2656 4147 2194 4147 
L 1259 4147 
z
M 628 4666 
L 2241 4666 
Q 2963 4666 3353 4366 
Q 3744 4066 3744 3513 
Q 3744 3084 3544 2831 
Q 3344 2578 2956 2516 
Q 3422 2416 3680 2098 
Q 3938 1781 3938 1306 
Q 3938 681 3513 340 
Q 3088 0 2303 0 
L 628 0 
L 628 4666 
z
" transform="scale(0.015625)"/>
       <path id="DejaVuSans-72" d="M 2631 2963 
Q 2534 3019 2420 3045 
Q 2306 3072 2169 3072 
Q 1681 3072 1420 2755 
Q 1159 2438 1159 1844 
L 1159 0 
L 581 0 
L 581 3500 
L 1159 3500 
L 1159 2956 
Q 1341 3275 1631 3429 
Q 1922 3584 2338 3584 
Q 2397 3584 2469 3576 
Q 2541 3569 2628 3553 
L 2631 2963 
z
" transform="scale(0.015625)"/>
      </defs>
      <use xlink:href="#DejaVuSans-42"/>
      <use xlink:href="#DejaVuSans-72" x="68.603516"/>
      <use xlink:href="#DejaVuSans-61" x="109.716797"/>
      <use xlink:href="#DejaVuSans-73" x="170.996094"/>
      <use xlink:href="#DejaVuSans-73" x="223.095703"/>
     </g>
    </g>
    <g id="line2d_16">
     <defs>
      <path id="mcbad552abd" d="M -3 3 
L 3 -3 
M -3 -3 
L 3 3 
" style="stroke: #00ff00; stroke-opacity: 0.5; stroke-width: 1.5"/>
     </defs>
     <g>
      <use xlink:href="#mcbad552abd" x="336.829375" y="98.604813" style="fill: #00ff00; fill-opacity: 0.5; stroke: #00ff00; stroke-opacity: 0.5; stroke-width: 1.5"/>
     </g>
    </g>
    <g id="text_17">
     <!-- Bronze -->
     <g transform="translate(354.829375 102.104813) scale(0.1 -0.1)">
      <defs>
       <path id="DejaVuSans-6f" d="M 1959 3097 
Q 1497 3097 1228 2736 
Q 959 2375 959 1747 
Q 959 1119 1226 758 
Q 1494 397 1959 397 
Q 2419 397 2687 759 
Q 2956 1122 2956 1747 
Q 2956 2369 2687 2733 
Q 2419 3097 1959 3097 
z
M 1959 3584 
Q 2709 3584 3137 3096 
Q 3566 2609 3566 1747 
Q 3566 888 3137 398 
Q 2709 -91 1959 -91 
Q 1206 -91 779 398 
Q 353 888 353 1747 
Q 353 2609 779 3096 
Q 1206 3584 1959 3584 
z
" transform="scale(0.015625)"/>
       <path id="DejaVuSans-7a" d="M 353 3500 
L 3084 3500 
L 3084 2975 
L 922 459 
L 3084 459 
L 3084 0 
L 275 0 
L 275 525 
L 2438 3041 
L 353 3041 
L 353 3500 
z
" transform="scale(0.015625)"/>
      </defs>
      <use xlink:href="#DejaVuSans-42"/>
      <use xlink:href="#DejaVuSans-72" x="68.603516"/>
      <use xlink:href="#DejaVuSans-6f" x="107.466797"/>
      <use xlink:href="#DejaVuSans-6e" x="168.648438"/>
      <use xlink:href="#DejaVuSans-7a" x="232.027344"/>
      <use xlink:href="#DejaVuSans-65" x="284.517578"/>
     </g>
    </g>
   </g>
   <g id="legend_2">
    <g id="patch_8">
     <path d="M 324.829375 108.1845 
L 407.72 108.1845 
Q 409.72 108.1845 409.72 106.1845 
L 409.72 48.472 
Q 409.72 46.472 407.72 46.472 
L 324.829375 46.472 
Q 322.829375 46.472 322.829375 48.472 
L 322.829375 106.1845 
Q 322.829375 108.1845 324.829375 108.1845 
z
" style="fill: #001a1a; fill-opacity: 0.1; stroke: #cccccc; stroke-linejoin: miter"/>
    </g>
    <g id="text_18">
     <!-- Classes -->
     <g transform="translate(347.439531 58.070438) scale(0.1 -0.1)">
      <use xlink:href="#DejaVuSans-43"/>
      <use xlink:href="#DejaVuSans-6c" x="69.824219"/>
      <use xlink:href="#DejaVuSans-61" x="97.607422"/>
      <use xlink:href="#DejaVuSans-73" x="158.886719"/>
      <use xlink:href="#DejaVuSans-73" x="210.986328"/>
      <use xlink:href="#DejaVuSans-65" x="263.085938"/>
      <use xlink:href="#DejaVuSans-73" x="324.609375"/>
     </g>
    </g>
    <g id="line2d_17">
     <g>
      <use xlink:href="#mb40ee3f619" x="336.829375" y="69.248563" style="fill: #0000ff; fill-opacity: 0.5; stroke: #0000ff; stroke-opacity: 0.5; stroke-width: 1.5"/>
     </g>
    </g>
    <g id="text_19">
     <!-- Aluminum -->
     <g transform="translate(354.829375 72.748563) scale(0.1 -0.1)">
      <use xlink:href="#DejaVuSans-41"/>
      <use xlink:href="#DejaVuSans-6c" x="68.408203"/>
      <use xlink:href="#DejaVuSans-75" x="96.191406"/>
      <use xlink:href="#DejaVuSans-6d" x="159.570312"/>
      <use xlink:href="#DejaVuSans-69" x="256.982422"/>
      <use xlink:href="#DejaVuSans-6e" x="284.765625"/>
      <use xlink:href="#DejaVuSans-75" x="348.144531"/>
      <use xlink:href="#DejaVuSans-6d" x="411.523438"/>
     </g>
    </g>
    <g id="line2d_18">
     <g>
      <use xlink:href="#meb9c66b772" x="336.829375" y="83.926688" style="fill: #fe0100; fill-opacity: 0.5; stroke: #fe0100; stroke-opacity: 0.5; stroke-width: 1.5"/>
     </g>
    </g>
    <g id="text_20">
     <!-- Brass -->
     <g transform="translate(354.829375 87.426688) scale(0.1 -0.1)">
      <use xlink:href="#DejaVuSans-42"/>
      <use xlink:href="#DejaVuSans-72" x="68.603516"/>
      <use xlink:href="#DejaVuSans-61" x="109.716797"/>
      <use xlink:href="#DejaVuSans-73" x="170.996094"/>
      <use xlink:href="#DejaVuSans-73" x="223.095703"/>
     </g>
    </g>
    <g id="line2d_19">
     <g>
      <use xlink:href="#mcbad552abd" x="336.829375" y="98.604813" style="fill: #00ff00; fill-opacity: 0.5; stroke: #00ff00; stroke-opacity: 0.5; stroke-width: 1.5"/>
     </g>
    </g>
    <g id="text_21">
     <!-- Bronze -->
     <g transform="translate(354.829375 102.104813) scale(0.1 -0.1)">
      <use xlink:href="#DejaVuSans-42"/>
      <use xlink:href="#DejaVuSans-72" x="68.603516"/>
      <use xlink:href="#DejaVuSans-6f" x="107.466797"/>
      <use xlink:href="#DejaVuSans-6e" x="168.648438"/>
      <use xlink:href="#DejaVuSans-7a" x="232.027344"/>
      <use xlink:href="#DejaVuSans-65" x="284.517578"/>
     </g>
    </g>
   </g>
  </g>
 </g>
 <defs>
  <clipPath id="p37325847cb">
   <rect x="57.6" y="41.472" width="357.12" height="266.112"/>
  </clipPath>
 </defs>
</svg>
